<?xml version="1.0" encoding="utf-8"?>
<!-- Generator: Adobe Illustrator 23.0.2, SVG Export Plug-In . SVG Version: 6.00 Build 0)  -->
<svg version="1.1" id="Layer_1" xmlns="http://www.w3.org/2000/svg" xmlns:xlink="http://www.w3.org/1999/xlink" x="0px" y="0px"
	 viewBox="0 0 595.28 595.28" style="enable-background:new 0 0 595.28 595.28;" xml:space="preserve">
<style type="text/css">
	.st0{fill:#7AC3EC;}
	.st1{fill:#F08738;}
	.st2{fill:#7C6C64;}
</style>
<g>
	<path class="st1" d="M153.43,315.45c0,2.64-0.36,5.05-1.08,7.24c-0.72,2.19-1.88,3.65-3.47,4.38c-1.92,0.92-3.2,1.01-3.83,0.25
		c-0.63-0.75-0.96-1.92-0.96-3.52c0-1.6,0.2-3.49,0.6-5.68c0.4-2.18,0.64-4.27,0.72-6.28c0.08-2-0.12-3.71-0.6-5.11
		c-0.48-1.4-1.6-2.12-3.35-2.13c-2.87-0.08-5.63,1.08-8.26,3.46c-2.63,2.37-4.67,4.8-6.11,7.23c-2.24,4.14-3.63,9.27-4.19,15.34
		c-0.56,6.07-0.68,12.41-0.36,18.98c0.32,6.58,0.88,12.92,1.68,19.03c0.8,6.11,1.52,11.28,2.16,15.5
		c0.96,6.09,2.08,12.89,3.35,20.39c1.28,7.5,2.2,15.18,2.76,23.02c0.56,7.84,0.6,15.54,0.12,23.1c-0.48,7.56-1.92,14.35-4.31,20.42
		c-2.4,6.07-6.03,11.04-10.9,15.09c-4.87,4.04-10.1,7.01-15.69,8.99c-5.59,1.98-11.06,2.85-16.41,2.61
		c-5.35-0.24-9.62-1.98-12.82-5.41c-1.28-1.44-2.32-3.24-3.11-5.4c-0.8-2.16-1.2-4.56-1.2-7.19c0-2.64,0.32-5.32,0.96-8.05
		c0.64-2.72,1.75-5.27,3.35-7.63c0.32-0.6,0.92-1.34,1.8-2.22c0.88-0.88,1.76-1.68,2.63-2.38c0.87-0.7,1.76-1.25,2.63-1.63
		c0.87-0.38,1.47-0.38,1.8,0c0.32,0.37,0.08,2.05-0.72,5.03c-0.8,2.99-1.36,6.25-1.68,9.79c-0.32,3.54,0,6.95,0.96,10.22
		c0.96,3.27,3.49,5.3,7.43,6.36c3.8,1.02,7.11,0.86,9.82-0.73c2.71-1.58,4.95-3.87,6.71-6.91c1.76-3.04,3.08-6.4,3.95-10.1
		c0.88-3.7,1.47-7.02,1.8-9.96c0.8-8.46,0.84-16.86,0.12-25.18c-0.72-8.31-1.6-16.59-2.63-24.83c-1.04-8.24-2.08-16.47-3.11-24.7
		c-1.04-8.22-1.6-16.52-1.68-24.88c-0.08-8.36,0.64-16.89,2.16-25.53c1.52-8.65,4.27-17.5,8.26-26.41c2.07-3.43,4.95-6.64,8.62-9.54
		c3.67-2.9,7.46-4.94,11.38-6.11c3.91-1.17,7.59-1.19,11.02-0.1c3.43,1.09,6.03,3.63,7.79,7.53c0.48,1.41,0.92,3.39,1.32,5.92
		C153.23,310.23,153.43,312.81,153.43,315.45z M340.03,399.44c0.96,1.05,1.83,1.42,2.63,1.08c0.8-0.33,1.56-1.19,2.27-2.58
		c0.72-1.39,1.32-2.91,1.8-4.59c0.8-2.57,0.96-4.98,0.48-7.22c-0.48-2.24-1.61-3.35-3.35-3.36c-1.9-0.01-3.63,0.65-5.15,2.05
		c-1.52,1.39-1.88,4.24-1.08,8.54C338.27,396.36,339.07,398.39,340.03,399.44z M540.28,409.65c-7.03,12.19-13.22,21.13-18.56,27.07
		c-5.35,5.94-10.18,10.09-14.49,12.56c-0.48,3.95-1.2,8.79-2.16,14.52c-0.96,5.73-2.2,11.84-3.71,18.31
		c-1.52,6.47-3.44,12.94-5.75,19.37c-2.32,6.43-5.11,12.2-8.38,17.27c-3.28,5.07-7.07,9.19-11.38,12.32
		c-4.31,3.13-9.21,4.6-14.61,4.29c-6.36-0.37-10.98-2.45-13.77-5.9c-2.79-3.46-4.15-7.77-4.07-12.88c0.08-5.11,1.36-10.67,3.83-16.7
		c2.47-6.03,5.83-11.95,10.06-17.83c4.23-5.88,9.14-11.41,14.73-16.68c5.59-5.27,11.58-9.59,17.97-13.06
		c0.8-3.01,1.4-7.07,1.8-12.17c0.4-5.1,0.84-10.57,1.32-16.4c-0.8,2.38-1.8,4.99-2.99,7.83c-1.2,2.84-2.56,5.57-4.07,8.2
		c-1.52,2.63-3.28,5-5.27,7.1c-2,2.1-4.19,3.69-6.59,4.75c-3.99,1.71-7.27,1.94-9.82,0.77c-2.55-1.16-4.51-3.09-5.87-5.73
		c-0.54-1.06-0.99-2.19-1.38-3.37c-2.25,5.25-4.7,10.73-7.37,16.42c-2.87,6.15-5.87,12.3-8.98,18.44
		c-3.11,6.15-6.27,11.53-9.46,16.16c-3.19,4.62-6.35,8.21-9.46,10.77c-3.11,2.55-5.95,3.41-8.5,2.59c-3.35-1.2-5.59-3.91-6.71-8.08
		c-1.12-4.17-1.56-9.04-1.32-14.61c0.24-5.57,0.92-11.49,2.04-17.79c1.12-6.29,2.31-12.14,3.59-17.55c1.28-5.41,2.36-10,3.23-13.78
		c0.88-3.77,1.16-5.99,0.84-6.65c-0.32-0.82-1.28,0.03-2.87,2.55c-1.6,2.52-3.52,5.88-5.75,10.07c-2.24,4.2-4.75,8.83-7.55,13.89
		c-2.79,5.06-5.59,9.74-8.38,14.04c-2.79,4.3-5.47,7.75-8.02,10.36c-2.56,2.62-4.8,3.52-6.71,2.78c-2.06-0.79-3.71-2.86-4.91-6.24
		c-1.2-3.37-1.92-7.84-2.16-13.38c-0.24-5.55-0.04-11.99,0.6-19.31c0.12-1.38,0.26-2.79,0.41-4.22c-0.65,1.3-1.31,2.6-1.96,3.86
		c-3.43,6.65-6.71,12.39-9.82,17.22c-3.11,4.83-6.07,8.58-8.86,11.29c-2.79,2.7-5.23,3.94-7.31,3.71
		c-7.99-0.99-12.7-7.1-14.13-18.23c-1.26-9.73-0.44-22.78,2.45-39.16c-2.58,0.75-5.35,1.18-8.32,1.25
		c-3.27,0.08-6.63-0.26-10.06-1.02c-3.43-0.76-6.67-1.76-9.7-3c-2.56,6.68-5.35,13.27-8.38,19.78c-3.03,6.51-6.11,12.45-9.22,17.84
		c-3.11,5.38-6.15,9.87-9.1,13.47c-2.96,3.59-5.63,5.89-8.02,6.89c-6.23,1.09-11.18,0.11-14.85-2.98c-3.68-3.1-6.35-7.49-8.02-13.18
		c-1.68-5.7-2.63-12.19-2.87-19.5c-0.24-7.3-0.08-14.58,0.48-21.84c0.03-0.33,0.06-0.65,0.08-0.98c-1.34,2.22-2.68,4.43-4.03,6.6
		c-4.63,7.44-9.1,13.84-13.41,19.19c-3.03,3.76-6.39,7.34-10.06,10.76c-3.68,3.42-7.14,5.13-10.3,5.18
		c-2.69,0.04-5.03-1.59-6.95-5.01c-1.91-3.41-2.92-8.35-3.11-14.72c-0.14-4.62,0.16-10.41,0.96-17.3c0.51-4.41,1.28-9.54,2.32-15.38
		c0.18-1.01-1.27-1.38-1.58-0.41c-0.4,1.24-0.8,2.54-1.21,3.9c-1.76,5.79-3.75,11.49-5.99,17.11c-2.24,5.62-4.71,10.62-7.43,14.99
		c-2.72,4.37-5.59,6.86-8.62,7.45c-4.63,0.9-8.42,0.34-11.38-1.75c-2.95-2.1-5.15-5.13-6.59-9.14c-1.44-4.02-2.07-8.61-1.92-13.81
		c0.16-5.2,0.96-10.39,2.4-15.55c1.44-5.17,3.52-9.95,6.23-14.32c2.71-4.36,5.99-7.71,9.82-10c3.83-2.28,8.18-3.14,13.05-2.52
		c4.87,0.61,10.18,3.3,15.93,8.08c0.64-3.14,1.16-5.69,1.56-7.66c0.4-1.96,0.92-4.59,1.56-7.89c1.92-1.42,3.87-2.08,5.87-1.96
		c1.99,0.12,3.83,0.64,5.51,1.55c1.68,0.91,3.07,1.99,4.19,3.24c1.12,1.25,1.6,2.35,1.44,3.29c-0.32,1.72-0.84,4.45-1.56,8.19
		c-0.72,3.75-1.48,7.89-2.28,12.43c-0.8,4.54-1.56,9.28-2.28,14.23c-0.72,4.95-1.32,9.48-1.8,13.58c-0.48,4.1-0.72,7.63-0.72,10.58
		c0,2.96,0.32,4.7,0.96,5.25c1.12,0.92,4.51-2.67,10.18-10.65c4.93-6.94,11.77-17,20.5-30.01c0.29-2.35,0.59-4.67,0.93-6.9
		c0.96-6.32,1.68-11.27,2.16-14.87c1.59-3.09,3.51-5.73,5.75-7.91c2.23-2.17,4.31-3.45,6.23-3.84c1.92-0.38,3.48,0.29,4.67,2.03
		c1.2,1.73,1.63,4.97,1.32,9.7c-0.16,1.73-0.36,4.65-0.6,8.75c-0.24,4.11-0.52,8.77-0.84,13.98c-0.32,5.21-0.6,10.75-0.84,16.62
		c-0.24,5.87-0.36,11.51-0.36,16.94c0,5.43,0.12,10.36,0.36,14.8c0.24,4.44,0.68,7.83,1.32,10.18c0.32,1.33,1.08,2.27,2.28,2.81
		c1.2,0.54,2.04,0.29,2.52-0.74c0.64-0.52,1.56-1.71,2.75-3.56c1.2-1.85,2.43-4.06,3.71-6.61c1.28-2.55,2.67-5.4,4.19-8.55
		c1.52-3.14,2.99-6.25,4.43-9.33c3.35-7.34,6.86-15.43,10.54-24.29c-4.47-2.47-7.67-5.45-9.58-8.94c-1.92-3.49-2.91-7.11-2.99-10.88
		c-0.08-3.76,0.56-7.51,1.92-11.25c1.36-3.73,3.11-7.1,5.27-10.12c2.15-3.01,4.59-5.45,7.31-7.31c2.71-1.86,5.39-2.81,7.91-2.75
		c2.99,0.07,5.19,1.51,6.47,4.16c1.28,2.64,1.83,6.23,1.68,10.75c-0.16,4.52-0.96,9.71-2.39,15.58c-1.49,6.06-3.32,12.44-5.48,19.13
		c0.4,0.84,0.64,1.33,1.04,2.16c2.12,0.74,4.4,1.39,6.83,1.93c3.03,0.68,5.99,1.06,8.86,1.14c2.87,0.08,5.51-0.21,7.9-0.87
		c0.86-0.23,1.63-0.56,2.36-0.92c0.17-0.86,0.33-1.72,0.51-2.6c0.64-3.55,1.88-5.67,3.71-6.37c1.83-0.69,3.71-0.62,5.63,0.21
		c1.91,0.83,3.59,2.06,5.03,3.67c1.44,1.62,2.07,3.05,1.92,4.3c-1.28,14.79-2.52,26.94-3.71,36.46c-1.2,9.52-1.48,15.62-0.84,18.29
		c0.32,1.98,1.32,2.24,2.99,0.78c1.68-1.46,3.63-3.86,5.87-7.23c2.24-3.36,4.63-7.35,7.19-11.95c2.55-4.6,4.91-9.02,7.07-13.23
		c2-3.91,3.72-7.3,5.17-10.21c0.29-1.96,0.6-3.95,0.94-5.98c0.96-5.76,2.67-9.94,5.15-12.55c2.47-2.6,4.91-3.79,7.31-3.56
		c2.39,0.23,4.39,1.71,5.99,4.46c1.6,2.74,1.96,6.57,1.2,11.4c-0.66,4.21-1.36,8.94-2.16,14.12c-0.8,5.17-1.44,9.89-1.92,14.14
		c-0.48,4.25-0.8,7.69-0.96,10.3c-0.16,2.61,0.08,3.57,0.72,2.85c1.28-1.6,2.79-4.01,4.55-7.24c1.76-3.23,3.71-6.8,5.87-10.73
		c2.15-3.92,4.47-7.97,6.95-12.14c2.47-4.17,4.91-8,7.31-11.49c2.39-3.49,4.75-6.41,7.07-8.76c2.31-2.34,4.51-3.63,6.59-3.87
		c3.51-0.34,5.79,1.59,6.83,5.85c1.04,4.25,1.32,9.26,0.84,14.99c-0.47,5.58-1.44,11.63-2.87,18.13
		c-1.44,6.51-2.87,12.85-4.31,19.02c-1.44,6.17-2.63,11.75-3.59,16.73c-0.96,4.98-1.32,8.81-0.96,11.33
		c0.28,1.9,1.35,1.87,3.11-0.21c1.76-2.08,3.87-5.36,6.35-9.84c2.47-4.48,5.19-9.71,8.14-15.69c2.95-5.98,5.75-11.75,8.38-17.31
		c2.63-5.57,4.95-10.56,6.95-14.95c0.23-0.51,0.45-0.98,0.66-1.45c-0.06-1.85-0.01-3.62,0.18-5.3c0.48-4.97,1.56-9.25,3.23-12.86
		c1.68-3.6,3.99-6.34,6.95-8.25c2.95-1.91,6.67-2.81,11.14-2.78c4.47,0.03,9.82,1.24,16.05,3.48c0.16-0.99,0.32-1.9,0.48-2.72
		c0.16-0.82,0.32-1.7,0.48-2.6c0.16-0.9,0.32-1.77,0.48-2.6c0.64-3.15,1.83-4.89,3.59-5.25c0.96-0.19,1.92,0.09,2.87,0.84
		c0.96,0.75,1.83,1.76,2.63,3.02c2.07,3.69,3.51,9.57,4.31,17.68c0.8,8.11,0.88,17.2,0.24,27.25c3.83-2.53,8.14-6.59,12.93-12.27
		c4.79-5.67,9.98-13.34,15.57-23.11c1.12-1.69,2.19-2.39,3.23-2.08C540.96,406.15,541.08,407.42,540.28,409.65z M195.59,392.21
		c-3.99-3.16-7.59-4.08-10.78-2.79c-3.2,1.29-5.87,3.81-8.02,7.5c-2.16,3.7-3.87,8.16-5.15,13.33c-1.28,5.18-2.04,10.05-2.28,14.6
		c-0.24,4.55,0.08,8.3,0.96,11.26c0.88,2.96,2.28,4.05,4.19,3.29c1.92-0.6,3.87-2.94,5.87-7.03c1.99-4.08,3.95-8.63,5.87-13.65
		c1.92-5.01,3.67-10.02,5.27-15.04C193.11,398.66,194.47,394.85,195.59,392.21z M302.54,387.86c0.88-3.58,1.56-6.96,2.04-10.13
		c0.48-3.18,0.68-5.89,0.6-8.15c-0.08-2.25-0.6-3.55-1.56-3.9c-1.6-0.64-3.28-0.21-5.03,1.28c-1.76,1.49-3.35,3.61-4.79,6.36
		c-1.44,2.75-2.63,5.95-3.59,9.59c-0.96,3.64-1.48,7.18-1.56,10.59c-0.08,3.42,0.4,6.47,1.44,9.15c1.04,2.68,2.83,4.59,5.39,5.73
		c1.72-4.26,2.59-6.39,4.31-10.65C300.75,394.73,301.66,391.44,302.54,387.86z M491.65,411.29c-0.32,0.7-0.48,1.2-0.48,1.52
		c-3.99-1.86-7.47-2.27-10.42-1.16c-2.96,1.11-5.39,3.03-7.31,5.78c-1.92,2.76-3.31,5.96-4.19,9.63c-0.88,3.67-1.28,7.1-1.2,10.29
		c0.08,3.19,0.6,5.74,1.56,7.64c0.96,1.91,2.35,2.47,4.07,1.63c1.58-0.77,3.23-2.47,4.91-5c1.68-2.52,3.27-5.45,4.79-8.79
		c1.52-3.33,2.95-6.78,4.31-10.35c1.36-3.57,2.52-6.8,3.47-9.68c0,0.1,0,0.14,0,0.24C491.36,412.34,491.46,411.99,491.65,411.29z
		 M489.74,458.81c-11.34,8.45-19.84,16.24-25.51,24.24c-5.67,8-9.26,15.16-10.78,21.68c-1.52,6.52-1.44,11.83,0.24,15.92
		c1.68,4.08,4.27,5.89,7.78,5.35c2.07-0.3,4.43-1.71,7.07-4.25c2.63-2.55,5.27-6.49,7.91-11.83c2.63-5.34,5.11-12.22,7.43-20.61
		C486.18,480.91,488.14,470.73,489.74,458.81z M71.37,311.93c3.36,0.53,6.8-0.2,10.07-1.13c11.91-3.36,23.06-9.38,32.41-17.48
		c-11.93-4.87-25.49-5.65-37.9-2.18c-3.55,0.99-7.11,2.39-9.72,4.99c-2.61,2.6-4.06,6.63-2.76,10.07
		C64.69,309.38,68,311.41,71.37,311.93z M82.5,271.53c1.7,2.12,4.12,3.53,6.55,4.74c8.84,4.41,18.65,6.85,28.53,7.09
		c-4.43-9.29-12.01-17.03-21.21-21.65c-2.63-1.32-5.48-2.41-8.42-2.28c-2.94,0.13-5.96,1.73-7.04,4.47
		C79.93,266.44,80.79,269.41,82.5,271.53z M228.95,533.9c-0.59-1-1.17-1.85-1.75-2.56c-0.58-0.71-0.93-1.65-1.07-2.8
		c-0.14-1.1-0.24-2.1-0.29-2.96c-0.65-10.46,0.12-21.08,0.05-31.57c-0.01-1.23,0.11-2.36,0.43-3.33c0.32-0.96,1.19-1.54,2.62-1.71
		c0.05,0,0.12-0.04,0.23-0.13c0.31-0.29,0.47-0.53,0.48-0.74c-0.03-0.47-0.25-0.78-0.69-0.93c-0.24-0.08-0.47-0.12-0.69-0.15
		c-0.22-0.02-0.45-0.04-0.7-0.06c-0.93-0.08-1.84-0.09-2.72,0c-0.89,0.08-1.77,0.06-2.65-0.04c-1.12-0.14-2,0.04-2.64,0.49
		c-0.64,0.46-1.22,1.11-1.75,1.97c-2.03,3.28-4.18,6.46-6.44,9.55c-2.26,3.09-4.41,6.34-6.45,9.73c-0.43,0.78-0.83,1.19-1.2,1.22
		c-0.37,0.03-0.81-0.29-1.31-0.95c-1.84-2.45-3.63-4.89-5.37-7.31c-1.74-2.42-3.25-5.01-4.54-7.8c-0.36-0.75-0.75-1.44-1.18-2.07
		c-0.43-0.63-0.88-1.29-1.33-1.97c-0.87-1.31-2.16-1.92-3.88-1.8c-0.99,0.08-1.96,0.18-2.92,0.32c-0.96,0.14-1.94,0.25-2.92,0.31
		c-0.54,0.04-1.06,0.14-1.56,0.31c-0.5,0.17-1,0.35-1.5,0.55c-0.25,0.1-0.48,0.22-0.68,0.36c-0.2,0.14-0.34,0.37-0.4,0.7
		c-0.18,0.6,0.05,1.02,0.67,1.26c0.29,0.15,0.55,0.2,0.8,0.16c1.13,0,1.83,0.36,2.12,1.05c0.28,0.7,0.45,1.51,0.5,2.43
		c0.02,0.56,0.03,1.14,0.02,1.73c-0.01,0.59-0.07,1.18-0.2,1.77c-0.37,2.48-0.61,4.93-0.7,7.34c-0.1,2.41-0.23,4.85-0.41,7.29
		c-0.18,2.6-0.32,5.18-0.43,7.72c-0.1,2.54-0.29,5.1-0.57,7.67c-0.16,1.21-0.46,2.29-0.9,3.24c-0.44,0.96-1.24,1.76-2.4,2.45
		c-0.3,0.16-0.6,0.37-0.88,0.63c-0.28,0.26-0.55,0.5-0.81,0.7c-0.46,0.46-0.69,0.92-0.66,1.37c0.03,0.34,0.16,0.57,0.37,0.65
		c0.22,0.08,0.47,0.13,0.77,0.12c0.39,0.02,1.03-0.02,1.92-0.14c0.89-0.11,1.63-0.17,2.21-0.16c0.94-0.16,1.68-0.25,2.22-0.28
		c0.54-0.03,1.03-0.07,1.48-0.1c0.44-0.04,0.9-0.07,1.37-0.11c0.47-0.04,1.05-0.13,1.74-0.26c0.69-0.14,1.15-0.44,1.37-0.94
		c0.22-0.49,0.22-1.06,0.01-1.7c-0.08-0.3-0.23-0.52-0.44-0.65c-0.21-0.13-0.41-0.31-0.6-0.55c-0.33-0.37-0.63-0.74-0.9-1.09
		c-0.28-0.35-0.45-0.81-0.52-1.36c-0.02-0.61-0.02-1.4,0.01-2.36c0.02-0.96,0.06-1.9,0.11-2.84c0.05-0.93,0.09-1.75,0.12-2.45
		c0.04-0.7,0.06-1.1,0.06-1.21c-0.11-1.74-0.06-3.47,0.15-5.2c0.21-1.73,0.36-3.48,0.52-5.17c0.15-1.55,0.39-3.15,0.64-4.73
		c0.25-1.58,0.32-3.14,0.2-4.67c-0.04-0.15-0.04-0.38,0-0.7c0.04-0.31,0.2-0.41,0.49-0.3c0.53,0.25,0.97,0.58,1.35,1
		c0.37,0.42,0.72,0.9,1.03,1.43c0.81,1.36,1.68,2.64,2.6,3.84c0.92,1.21,1.86,2.43,2.83,3.65c1.1,1.47,2.23,2.91,3.39,4.3
		c1.16,1.39,2.26,2.9,3.3,4.53c0.4,0.72,0.86,1.08,1.38,1.09c0.52,0.01,0.91-0.29,1.19-0.92c0.45-1.04,1.02-1.97,1.72-2.78
		c0.7-0.81,1.34-1.65,1.93-2.54c1.71-2.85,3.46-5.67,5.24-8.46c1.78-2.79,3.67-5.46,5.66-8.01c0.16-0.25,0.31-0.49,0.44-0.72
		c0.13-0.23,0.37-0.35,0.72-0.39c0.24,0.12,0.39,0.3,0.45,0.53c0.06,0.24,0.09,0.49,0.07,0.75c0.05,0.89,0.09,1.76,0.12,2.62
		c0.03,0.86,0.02,1.73-0.02,2.62c-0.18,3.58-0.24,7.14-0.17,10.66c0.07,3.52,0.13,7.08,0.2,10.68c0.05,1,0.05,1.99,0,2.97
		c-0.05,0.99-0.24,1.94-0.58,2.85c-0.29,0.82-0.69,1.52-1.21,2.11c-0.52,0.6-1.09,1.16-1.7,1.7c-0.31,0.25-0.59,0.53-0.85,0.85
		c-0.26,0.33-0.26,0.73,0.01,1.21c0.14,0.21,0.35,0.34,0.64,0.38c0.29,0.04,0.61,0.03,0.96-0.02c0.34-0.06,0.71-0.13,1.08-0.21
		c0.37-0.08,0.71-0.21,0.93-0.25c0.33-0.07,0.95-0.08,1.66-0.16c0.71-0.08,1.49-0.13,2.32-0.13c0.83-0.01,1.68,0.01,2.54,0.06
		c0.85,0.05,1.64,0.19,2.37,0.42c0.48,0.15,0.96,0.24,1.42,0.26c0.46,0.02,0.83-0.21,1.1-0.7c0.32-0.54,0.33-1,0.03-1.37
		C229.44,534.59,229.18,534.24,228.95,533.9z M333.06,532.49c-0.35,1.65-0.96,3.29-1.83,4.91c-1.09,2.13-2.38,4.01-3.89,5.62
		c-1.5,1.62-3.22,3-5.14,4.13c-1.77,1.05-3.61,1.73-5.51,2.04c-1.9,0.31-3.86,0.48-5.87,0.48c-2.85,0.01-5.68-0.25-8.49-0.74
		c-2.82-0.5-5.67-0.94-8.46-1.37c-0.96-0.15-1.97-0.34-2.99-0.54c-1.02-0.2-2.11-0.33-2.99-0.56c-0.27-0.07-0.57-0.18-0.83-0.22
		c-0.27-0.05-0.56-0.12-0.84-0.22c-0.24-0.09-0.48-0.23-0.71-0.4c-0.24-0.17-0.37-0.42-0.4-0.74c-0.08-0.38-0.02-0.66,0.19-0.83
		c0.2-0.17,0.46-0.29,0.75-0.34c0.94-0.25,1.9-0.29,2.87-0.13c0.63,0.11,1.12,0.17,1.46,0.17c0.34,0.01,0.62-0.07,0.82-0.22
		c0.2-0.15,0.33-0.42,0.37-0.8c0.04-0.39,0.08-0.91,0.12-1.59c0.09-2.81,0.17-5.63,0.24-8.44c0.17-7.15,2.25-29.72-0.89-31.11
		c-0.38-0.17-0.76-0.32-1.12-0.43c-0.36-0.11-0.73-0.26-1.12-0.43c-0.72-0.23-1.24-0.61-1.56-1.14c-0.72-1.23-0.47-1.94,0.77-2.15
		c0.99-0.09,1.89-0.06,2.72,0.08c1.71,0.19,3.37,0.43,5,0.7c1.63,0.27,3.29,0.54,5,0.81c1.46,0.23,2.92,0.4,4.39,0.51
		c1.46,0.11,2.94,0.34,4.38,0.63c2.06,0.41,4.12,0.94,6.1,1.65c1.97,0.71,3.89,1.6,5.75,2.67c1.72,0.95,3.28,2.1,4.68,3.44
		c4.34,4.14,6.96,10.76,7.46,17.18C333.69,527.66,333.55,530.18,333.06,532.49z M320.98,511.72c-0.66-0.64-1.32-1.25-2-1.85
		c-0.68-0.59-1.38-1.14-2.09-1.64c-2.56-1.75-5.2-2.89-7.92-3.43c-2.72-0.53-5.49-0.97-8.32-1.31c-0.73-0.12-1.07,0.27-1.02,1.17
		c0.09,10.82-0.05,22.18-1.41,32.89c-0.2,1.61-0.28,3.27-0.29,4.93c0,1.19,0.52,1.89,1.59,2.05c1.65,0.26,3.3,0.44,4.94,0.54
		c1.64,0.11,3.33,0.15,5.03,0.18c1.64,0.04,3.22-0.2,4.67-0.79c1.45-0.58,2.81-1.33,4.08-2.25c1.57-1.09,2.89-2.46,3.96-4.11
		c1.53-2.36,2.61-5.22,3.17-8.23C326.58,523.47,325.38,516.32,320.98,511.72z M374.25,544.72c-0.07-0.6-0.15-1.22-0.24-1.84
		c-0.09-0.62-0.17-1.26-0.24-1.92c-0.08-0.39-0.13-0.78-0.16-1.16c-0.03-0.38-0.18-0.73-0.39-1.04c-0.23-0.34-0.54-0.54-0.93-0.51
		c-0.39,0.02-0.75,0.24-1.06,0.66c-0.37,0.42-0.61,0.99-0.75,1.68c-0.12,0.43-0.25,0.84-0.39,1.23c-0.14,0.39-0.42,0.74-0.83,1.07
		c-0.87,0.77-1.79,1.47-2.75,2.11c-0.96,0.64-2.03,1.08-3.15,1.25c-2.02,0.31-4.11,0.52-6.11,0.75c-1.99,0.23-4.06,0.46-6.1,0.59
		c-0.87,0.06-1.43-0.02-1.64-0.19c-0.21-0.17-0.3-0.79-0.31-1.81c-0.01-1.33-0.04-2.69-0.02-4.04c0.02-1.35,0.01-2.7-0.02-4.04
		c-0.02-0.57,0.11-0.96,0.39-1.18c0.28-0.22,0.64-0.37,1.09-0.44c1.28-0.16,2.58-0.33,3.89-0.5c1.31-0.17,2.61-0.27,3.87-0.28
		c1.12-0.01,2.16,0.22,3.09,0.65c0.93,0.43,1.56,1.32,1.89,2.67c0.08,0.4,0.19,0.76,0.35,1.07c0.16,0.32,0.5,0.42,1.05,0.29
		c0.49-0.12,0.82-0.39,0.96-0.79c0.14-0.41,0.27-0.83,0.39-1.25c0.06-0.21,0.1-0.53,0.12-0.95c0.28-1.59,0.39-3.14,0.34-4.65
		c-0.05-1.51-0.1-3.01-0.18-4.5c-0.06-0.82-0.24-1.64-0.54-2.48c-0.22-0.59-0.56-0.89-1.02-0.91c-0.46-0.02-0.91,0.26-1.33,0.83
		c-0.37,0.51-0.64,0.98-0.81,1.42c-0.57,1.56-1.41,2.67-2.52,3.3c-1.11,0.63-2.31,1-3.59,1.11c-2.25,0.18-3.37,0.25-5.61,0.36
		c-0.49,0.02-0.86,0.03-1.1,0.01c-0.25-0.02-0.44-0.09-0.58-0.21c-0.14-0.12-0.22-0.31-0.23-0.57c-0.26-5.27,0.37-10.5,0.37-15.78
		c0.15-3.36-0.86-7.85,3.39-8.32c1.26-0.14,2.55-0.29,3.8-0.35c1.25-0.07,2.5-0.26,3.75-0.59c2.38-0.59,4.35-0.24,5.9,1.09
		c0.71,0.63,1.21,1.25,1.52,1.87c0.27,0.53,0.59,0.94,0.97,1.25c0.38,0.3,0.8,0.57,1.28,0.8c0.77,0.34,1.41,0.34,1.91,0.02
		c0.5-0.32,0.78-0.98,0.83-1.97c0.06-1.2,0.02-2.36-0.12-3.49c-0.14-1.13-0.33-2.3-0.49-3.43c-0.16-1.18-0.85-1.62-2.14-1.26
		c-0.69,0.17-1.37,0.31-2.01,0.43c-0.64,0.12-1.31,0.23-2,0.32c-2.67,0.41-5.33,0.69-7.99,0.85c-2.65,0.16-5.32,0.39-7.98,0.68
		c-0.83,0.08-1.62,0.13-2.37,0.14c-0.75,0.02-1.52,0.05-2.29,0.11c-0.98,0.11-1.94,0.18-2.9,0.19c-0.96,0.02-1.93,0.07-2.91,0.15
		c-0.3,0.05-0.57,0.11-0.82,0.21c-0.25,0.1-0.43,0.34-0.55,0.69c-0.1,0.3-0.09,0.58,0.07,0.82c0.16,0.24,0.36,0.47,0.59,0.68
		c0.43,0.32,0.87,0.61,1.32,0.85c0.45,0.24,0.96,0.49,1.47,0.76c0.47,0.25,0.86,0.49,1.14,0.67c1.84,1.18,0.52,8.71,0.47,10.81
		c0,4.82,0.08,9.74-0.03,14.51c-0.02,0.91-0.01,1.85-0.03,2.77c-0.04,1.47-0.18,3.03-0.3,4.56c-0.12,1.53-0.13,3.05-0.01,4.56
		c0.08,1.2-0.48,2.14-1.68,2.81c-0.76,0.41-1.53,0.7-2.32,0.88c-0.79,0.17-1.61,0.3-2.45,0.38c-0.3,0.05-0.59,0.14-0.86,0.29
		c-0.28,0.15-0.45,0.43-0.52,0.84c-0.04,0.73,0.26,1.26,0.88,1.59c1,0.55,2.14,0.83,3.41,0.85c1.57,0.02,3.14,0.03,4.71,0.03
		c1.57,0,3.17-0.03,4.78-0.09c3.59-0.15,7.17-0.46,10.75-0.94c3.58-0.49,7.2-1.1,10.87-1.88c1.24-0.23,2.2-0.83,2.88-1.79
		C374.11,547.09,374.38,545.98,374.25,544.72z M274.28,499.99c-0.19-0.24-0.36-0.48-0.51-0.72c-0.16-0.24-0.36-0.46-0.59-0.66
		c-1.96-1.85-3.96-3.46-6.02-4.87c0,0,0,6.05,0,6.06c0,0.83,3.68,3.88,4.28,4.87c1.41,2.34,2.19,5.23,2.7,7.9
		c1.03,5.42,0.62,11.13-1.28,16.32c-2.57,7-9.14,9.59-16.4,8.03c-13.17-2.83-15.75-22.65-11.16-32.94c0.74-1.65,1.74-3.42,2.92-4.81
		c0.3-0.34,3.42-2.6,3.42-2.59c0-0.02,0-6.14,0-6.14c-0.4,0.09-0.81,0.18-1.2,0.29c-2.17,0.65-4.22,1.68-6.15,3.07
		c-2.6,1.87-4.62,4.17-6.08,6.85c-1.46,2.69-2.39,5.72-2.81,9.06c-0.31,2.46-0.29,4.92,0.11,7.34c0.39,2.43,0.94,4.86,1.65,7.3
		c1.47,4.9,4.01,8.97,7.62,12.29c2.11,1.89,4.39,3.31,6.85,4.26c2.45,0.95,5,1.51,7.64,1.65c1.91,0.12,3.77,0.08,5.6-0.15
		c7.17-0.87,14.83-6.42,16.15-13.93c0.89-5.08,0.84-9.99-0.17-14.73C279.82,509.02,277.63,504.43,274.28,499.99z M259.4,513.4
		c2.01,0,3.64-1.63,3.64-3.64v-22.91c0-2.01-1.63-3.64-3.64-3.64c-2.01,0-3.64,1.63-3.64,3.64v22.91
		C255.76,511.77,257.39,513.4,259.4,513.4z"/>
	<path class="st0" d="M137.95,224.67c0.49,0.17,0.96,0.4,1.4,0.7c0.44,0.3,0.71,0.72,0.81,1.28c0.1,0.56-0.03,0.96-0.37,1.2
		c-0.34,0.24-0.79,0.37-1.32,0.39c-0.25,0.04-0.55,0-0.92-0.12c-0.37-0.12-0.59,0.01-0.7,0.37c-0.09,0.31-0.13,0.81-0.11,1.47
		c0.02,0.67,0.04,1.2,0.04,1.59c0,4.02,0,6.04,0,10.06c0,3.14,0,6.26,0,9.37c0,3.11-0.02,6.31,0.07,9.46
		c0.03,1.13,0.1,2.3,0.15,3.49c0.05,1.19,0.09,2.38,0.15,3.57c0.04,0.84,0.13,1.38,0.26,1.61c0.12,0.23,0.6,0.57,1.43,1.01
		c0.29,0.17,0.56,0.34,0.81,0.52c0.24,0.18,0.49,0.41,0.74,0.71c0.39,0.62,0.51,1.14,0.37,1.55c-0.15,0.41-0.54,0.65-1.18,0.7
		c-0.25,0.05-0.62,0.03-1.1-0.03c-0.49-0.07-0.86-0.17-1.1-0.28c-1.27-0.43-2.44-0.84-3.49-1.21c-1.05-0.38-2.19-0.93-3.42-1.67
		c-0.39-0.24-0.71-0.46-0.95-0.65c-0.44-0.31-0.81-0.69-1.1-1.13c-0.29-0.44-0.44-0.9-0.44-1.39c0.1-1.08,0.72-1.34,1.87-0.81
		c0.55,0.21,1.03,0.43,1.45,0.68c0.42,0.25,0.74,0.16,0.94-0.26c0.2-0.33,0.26-0.72,0.18-1.19c-0.07-0.47-0.11-0.92-0.11-1.36
		c-0.05-2.76-0.1-5.55-0.15-8.38c-0.05-2.83-0.07-5.72-0.07-8.66c0-1.66-0.01-3.09-0.04-4.27c-0.03-1.18,0.02-2.5,0.11-3.93
		c0.11-1.77,0.15-3.55,0.15-5.31c0-1.77-0.1-3.58-0.29-5.46c-0.1-0.57-0.23-1.02-0.37-1.34c-0.15-0.32-0.56-0.56-1.2-0.68
		c-0.49-0.09-0.98-0.38-1.46-0.88c-0.47-0.51-0.76-1.03-0.86-1.55c0-0.74,0.13-1.17,0.4-1.31c0.27-0.14,0.65-0.23,1.14-0.29
		c0.44-0.03,1.03,0.09,1.76,0.35c0.24,0.09,0.66,0.23,1.25,0.42c0.59,0.19,1.23,0.41,1.91,0.64c0.68,0.23,1.35,0.44,1.98,0.64
		C137.19,224.46,137.66,224.59,137.95,224.67z M177.25,242.54c0.2,3.5,0.33,7.06,0.4,10.7c0.07,3.64,0.06,7.3-0.04,10.99
		c-0.05,0.74-0.07,1.57-0.07,2.47c0,0.91-0.01,1.8-0.04,2.68c-0.03,0.89-0.07,1.7-0.15,2.45c-0.07,0.75-0.21,1.3-0.4,1.68
		c-0.2,0.57-0.5,1.01-0.92,1.34c-0.42,0.33-0.79,0.51-1.14,0.56c-0.69,0.09-1.17-0.19-1.47-0.84c-0.15-0.37-0.22-0.78-0.22-1.22
		c0-0.44,0-0.86,0-1.25c0-2.79,0-4.19,0-6.98c0-0.68-0.07-1.12-0.22-1.29c-0.15-0.18-0.57-0.26-1.25-0.22
		c-1.21,0.07-2.33,0.23-3.31,0.44c-0.98,0.21-2.06,0.43-3.23,0.65c-0.39,0.13-0.73,0.27-1.03,0.43c-0.29,0.16-0.44,0.44-0.44,0.83
		c-0.05,1.18-0.07,2.37-0.07,3.57c0,1.2-0.08,2.42-0.15,3.57c-0.08,1.25-0.66,2.29-1.84,3.02c-0.59,0.36-1.28,0.34-2.06-0.06
		c-0.79-0.41-1.18-1.03-1.18-1.86c0-1.76,0.02-3.26,0.07-4.48c0.05-1.23,0.14-2.56,0.22-3.97c0.12-2.03,0.2-4.11,0.29-6.17
		c0.1-2.06,0.2-4.11,0.29-6.17c0.24-3.14,0.42-6.26,0.51-9.37c0.1-3.11,0.37-6.22,0.81-9.31c0.1-1.03,0.29-2.04,0.59-3.03
		c0.29-0.98,0.73-1.93,1.32-2.84c1.42-2.21,3.11-3.42,5.07-3.66c1.96-0.24,3.79,0.54,5.51,2.34c0.69,0.75,1.25,1.57,1.69,2.47
		c0.44,0.9,0.81,1.84,1.1,2.83c0.39,1.51,0.72,3.07,0.99,4.67C177.19,239.08,177.3,240.77,177.25,242.54z M169.61,259.85
		c0.29-0.03,0.58-0.07,0.85-0.12c0.27-0.05,0.55-0.1,0.84-0.13c0.83-0.09,1.35-0.24,1.54-0.43c0.2-0.19,0.27-0.73,0.22-1.6
		c-0.1-2.68-0.17-5.35-0.22-8.02c-0.05-2.67-0.12-5.32-0.22-7.95c-0.14-3.4-0.78-6.78-1.91-10.15c-0.2-0.52-0.37-0.9-0.51-1.16
		c-0.15-0.25-0.39-0.56-0.73-0.92c-0.25-0.32-0.66-0.45-1.25-0.4c-0.59,0.05-1.03,0.33-1.32,0.84c-0.24,0.51-0.43,0.98-0.55,1.4
		c-0.12,0.43-0.23,0.91-0.33,1.46c-0.2,1.24-0.34,2.46-0.44,3.67c-0.1,1.21-0.2,2.43-0.29,3.66c-0.2,3.29-0.39,6.56-0.59,9.8
		c-0.2,3.25-0.42,6.52-0.66,9.81c-0.05,0.59,0.01,0.96,0.18,1.13c0.17,0.16,0.53,0.18,1.06,0.05c0.73-0.19,1.46-0.37,2.17-0.53
		C168.15,260.11,168.88,259.97,169.61,259.85z M194.88,228.28c0.15-0.03,0.32-0.25,0.51-0.65c0.2-0.41,0.34-0.74,0.44-1.01
		c0.88-2.14,2.35-3.9,4.41-5.3c1.18-0.88,2.29-1.16,3.34-0.86c1.05,0.3,1.73,1.06,2.02,2.27c0.15,0.51,0.25,1.01,0.29,1.48
		c0.05,0.48,0.07,0.99,0.07,1.53c-0.05,3.68-0.17,7.35-0.37,11.02c-0.2,3.66-0.49,7.37-0.88,11.12c-0.05,0.55-0.07,1.11-0.07,1.67
		c0,0.56,0,1.11,0,1.65c-0.05,1.33-0.09,2.66-0.11,3.99c-0.03,1.33-0.08,2.69-0.18,4.08c-0.09,1.29-0.12,2.58-0.07,3.87
		c0.05,1.29,0.12,2.59,0.15,3.83c0.02,0.96-0.13,1.69-0.4,2.14c-0.27,0.45-0.87,0.94-1.8,1.47c-0.83,0.46-1.49,0.38-1.98-0.26
		c-0.29-0.43-0.44-0.97-0.44-1.6c-0.15-3.06-0.17-6.09-0.07-9.09c0.1-3,0.24-6.09,0.37-9.18c0.12-2.89,0.28-5.81,0.55-8.71
		c0.27-2.89,0.4-5.81,0.4-8.75c0-0.98,0.07-1.98,0.22-3.02c0.15-1.03,0.17-2.05,0.07-3.07c-0.05-0.23-0.07-0.51-0.07-0.83
		c0-0.32-0.05-0.49-0.15-0.52c-0.34,0.02-0.65,0.34-0.92,0.96c-0.27,0.62-0.48,1.14-0.62,1.56c-0.64,1.6-1.2,3.2-1.69,4.79
		c-0.49,1.6-0.93,3.21-1.32,4.86c-0.29,1.24-1.01,2.22-2.13,2.93c-0.69,0.43-1.29,0.54-1.8,0.32c-0.51-0.22-0.82-0.71-0.92-1.47
		c-0.15-1.1-0.28-2.22-0.4-3.37c-0.12-1.15-0.28-2.27-0.48-3.36c-0.1-0.86-0.22-1.71-0.37-2.53c-0.15-0.83-0.27-1.67-0.37-2.54
		c-0.05-0.23-0.14-0.55-0.26-0.94c-0.12-0.39-0.28-0.52-0.48-0.38c-0.15,0.08-0.32,0.33-0.51,0.76c-0.2,0.43-0.38,0.92-0.55,1.46
		c-0.17,0.55-0.33,1.13-0.48,1.74c-0.15,0.62-0.25,1.15-0.3,1.6c-0.2,1.41-0.34,3.05-0.44,4.93c-0.1,1.88-0.17,3.87-0.22,5.95
		c-0.05,2.09-0.05,4.23,0,6.43c0.05,2.19,0.1,4.36,0.22,6.42c0.08,1.44,0.18,2.74,0.26,3.85c0.07,1.12,0.16,2.19,0.26,3.22
		c0.1,1.04,0.22,2.1,0.37,3.2c0.15,1.1,0.33,2.37,0.51,3.8c0.16,1.23-0.47,2.17-1.84,2.77c-0.64,0.27-1.2,0.26-1.69-0.02
		c-0.49-0.28-0.76-0.79-0.88-1.43c-0.11-0.59-0.28-1.16-0.4-1.66c-0.12-0.49-0.22-0.97-0.29-1.42c-0.07-0.45-0.16-0.95-0.26-1.5
		c-0.1-0.55-0.17-1.23-0.22-2.06c-0.15-1.25-0.28-2.8-0.4-4.67c-0.12-1.86-0.22-3.74-0.29-5.64c-0.07-1.9-0.12-3.67-0.15-5.3
		c-0.03-1.64-0.04-2.9-0.04-3.77c0-0.93,0.03-1.98,0.07-3.14c0.05-1.15,0.12-2.36,0.22-3.6c0.1-1.24,0.21-2.48,0.33-3.73
		c0.12-1.25,0.3-2.4,0.55-3.47c0.15-0.66,0.29-1.34,0.44-2.03c0.15-0.69,0.35-1.38,0.62-2.09c0.27-0.71,0.63-1.4,1.07-2.06
		c0.44-0.67,1-1.31,1.69-1.93c0.98-0.82,2.08-1.17,3.3-1.07c1.22,0.1,2.13,0.61,2.72,1.52c0.49,0.78,0.88,1.73,1.18,2.85
		c0.1,0.32,0.2,0.73,0.29,1.23C194.61,228,194.73,228.26,194.88,228.28z M224.26,230.17c0.2-1.79,0.44-3.57,0.73-5.35
		c0.29-1.77,0.93-3.63,1.91-5.55c0.69-1.4,1.52-2.45,2.5-3.13c0.98-0.68,1.97-1.1,2.98-1.25c1-0.15,1.97-0.03,2.9,0.34
		c0.93,0.37,1.71,0.89,2.35,1.56c2.15,2.24,3.62,4.93,4.41,7.97c0.54,1.92,0.83,3.8,0.88,5.64c0.05,1.84,0.25,3.9,0.44,6.07
		c0.19,2.06,0.21,4.03,0.18,5.77c-0.03,1.74-0.09,3.54-0.18,5.39c-0.1,1.91-0.29,3.8-0.59,5.68c-0.29,1.88-0.69,3.74-1.18,5.6
		c-0.39,1.41-0.99,2.61-1.8,3.6c-0.81,0.99-1.92,1.74-3.34,2.28c-0.83,0.33-1.7,0.49-2.61,0.5c-0.91,0.01-1.76-0.12-2.57-0.4
		c-0.81-0.28-1.55-0.66-2.24-1.16c-0.69-0.49-1.25-1.13-1.69-1.92c-1.08-1.84-1.82-3.77-2.24-5.8c-0.42-2.02-0.74-4.14-0.92-6.31
		c-0.26-3.09-0.36-6.25-0.33-9.43C223.88,237.1,224.02,233.73,224.26,230.17z M228.96,240.43c0,2.94,0.04,5.54,0.11,7.81
		c0.07,2.27,0.35,4.6,0.84,7.01c0.2,0.96,0.43,1.88,0.7,2.76c0.27,0.88,0.67,1.72,1.21,2.5c0.49,0.75,1.07,1.12,1.73,1.13
		c0.66,0.01,1.31-0.35,1.95-1.07c0.34-0.41,0.66-0.95,0.96-1.62c0.29-0.67,0.49-1.25,0.59-1.75c0.54-2.32,0.96-4.51,1.25-6.57
		c0.29-2.06,0.49-4.29,0.52-6.62c0.02-2.13-0.09-4.27-0.26-6.35c-0.17-2.08-0.29-4.18-0.4-6.27c-0.09-1.6-0.28-3.4-0.55-5.35
		c-0.27-1.95-0.74-3.91-1.58-5.23c-0.78-1.24-1.85-1.94-2.61-1.99c-0.76-0.05-1.55,0.77-2.17,2.37c-0.62,1.59-1.04,3.47-1.36,5.41
		c-0.32,1.94-0.54,3.81-0.66,5.61c-0.12,1.8-0.2,3.43-0.22,4.9C228.97,238.59,228.96,239.69,228.96,240.43z M265.62,257.53
		c0.05,0.16,0.15,0.19,0.29,0.09c0.1-1.24,0.16-2.29,0.18-3.13c0.02-0.85,0.04-1.74,0.04-2.67c0-1.96-0.01-3.76-0.04-5.41
		c-0.03-1.65-0.05-3.27-0.07-4.87c-0.03-1.6-0.05-3.22-0.07-4.88c-0.03-1.65-0.04-3.45-0.04-5.41c0-2.56,0-3.83,0-6.39
		c0-0.93-0.01-1.83-0.04-2.7c-0.03-0.86-0.15-1.89-0.4-3.03c-0.23-1.05-0.24-1.75,0-2.06c0.25-0.31,0.64-0.51,1.18-0.57
		c0.73-0.05,1.32,0.08,1.76,0.37c0.44,0.28,0.79,0.66,1.06,1.13c0.27,0.47,0.46,1.01,0.59,1.62c0.12,0.61,0.23,1.23,0.33,1.86
		c0.24,1.52,0.39,3.25,0.44,5.21c0.05,1.96,0.06,3.84,0,5.62c-0.08,2.59-0.1,5.25,0,7.93c0.1,2.68,0.07,5.38,0,8.01
		c-0.08,2.89-0.06,5.85-0.04,8.8c0.03,2.95-0.11,5.83-0.4,8.65c-0.05,0.23-0.09,0.47-0.11,0.73c-0.03,0.26-0.09,0.49-0.18,0.7
		c-0.29,1.26-1.18,1.73-2.64,1.51c-0.59-0.1-1.24-0.47-1.95-1.09c-0.71-0.62-1.22-1.26-1.51-1.93c-0.3-0.71-0.57-1.44-0.84-2.15
		c-0.27-0.71-0.53-1.42-0.77-2.12c-1.32-4.13-2.45-7.96-3.38-11.52c-0.93-3.56-1.74-7.36-2.42-11.4c-0.2-0.82-0.42-1.75-0.66-2.8
		c-0.25-1.05-0.48-2.04-0.7-2.99c-0.22-0.94-0.42-1.73-0.59-2.37c-0.17-0.64-0.28-0.96-0.33-0.97c-0.15-0.07-0.26,0.08-0.33,0.46
		c-0.07,0.38-0.15,0.83-0.22,1.36c-0.07,0.53-0.13,1.07-0.18,1.62c-0.05,0.56-0.07,0.98-0.07,1.27c-0.1,3.86-0.2,7.51-0.29,10.98
		c-0.1,3.47-0.07,7.09,0.07,10.88c0.05,1.38,0.1,2.73,0.15,4.06c0.05,1.33,0.02,2.7-0.07,4.1c-0.05,0.34-0.1,0.67-0.15,1.01
		c-0.05,0.34-0.16,0.64-0.33,0.91c-0.17,0.27-0.44,0.48-0.81,0.63c-0.37,0.15-0.89,0.18-1.58,0.11c-0.83-0.19-1.33-0.57-1.51-1.18
		c-0.17-0.6-0.26-1.44-0.26-2.52c-0.15-3.69-0.22-7.38-0.22-11.08c0-3.69,0.03-7.39,0.07-11.05c0.06-5.32,0.42-10.62,1.1-15.84
		c0.25-1.1,0.42-2.03,0.52-2.78c0.1-0.75,0.29-1.5,0.59-2.25c0.24-0.51,0.54-0.94,0.88-1.29c0.34-0.35,0.73-0.54,1.18-0.58
		c0.29-0.01,0.62,0.01,0.99,0.07c0.37,0.06,0.72,0.22,1.06,0.5c0.34,0.27,0.69,0.71,1.03,1.31c0.34,0.6,0.66,1.39,0.96,2.38
		c1.42,4.88,2.68,9.78,3.78,14.67c1.1,4.9,2.21,9.84,3.34,14.82c0.2,0.89,0.42,1.79,0.66,2.7
		C264.91,255.49,265.23,256.48,265.62,257.53z M500.27,280.66c-108.24,31.36-213.09-23.64-321.33,7.72
		c7.46,11.23,11.1,17.09,18.24,29.2c-3.71,15.25-5.49,22.91-8.88,38.29c103.29-23.97,199.32,31.25,302.61,7.27
		c-3.4-14.57-5.18-21.89-8.91-36.59C489.15,308.63,492.8,299.47,500.27,280.66z M253.69,332.39c-0.51,0.64-1.3,0.95-2.37,0.92
		c-3.17,0-6.3,0.07-9.4,0.2c-3.1,0.13-6.21,0.28-9.34,0.47c-1.41,0.08-2.8,0.17-4.17,0.26c-1.38,0.09-2.75,0.21-4.12,0.35
		c-1.11,0.11-2.14,0.02-3.08-0.27c-0.58-0.18-0.9-0.55-0.96-1.12c0.01-0.33,0.13-0.57,0.35-0.72c0.22-0.15,0.46-0.26,0.72-0.33
		c0.72-0.17,1.42-0.36,2.09-0.58c0.67-0.22,1.32-0.52,1.93-0.91c0.97-0.63,1.35-1.4,1.13-2.33c-0.28-1.17-0.46-2.35-0.53-3.56
		c-0.29-4.84-2-9.71-2-14.61c-0.24-1.94-0.49-3.88-0.73-5.81c-0.14-1.09,0.09-3.79-0.65-4.61c-0.15-0.17-0.36-0.31-0.64-0.42
		c-0.28-0.11-0.66-0.25-1.11-0.39c-0.49-0.15-0.98-0.27-1.42-0.4c-0.44-0.13-0.87-0.29-1.29-0.47c-0.24-0.13-0.44-0.28-0.61-0.44
		c-0.17-0.16-0.22-0.37-0.17-0.62c0.06-0.29,0.2-0.5,0.41-0.62c0.21-0.11,0.45-0.21,0.71-0.28c0.88-0.21,1.75-0.37,2.61-0.5
		c0.86-0.13,1.73-0.29,2.6-0.47c0.7-0.12,1.38-0.22,2.06-0.29c0.68-0.07,1.39-0.16,2.13-0.27c2.38-0.38,4.77-0.63,7.16-0.72
		c2.39-0.1,4.79-0.2,7.18-0.31c0.62-0.02,1.22-0.04,1.79-0.07c0.57-0.03,1.17-0.07,1.79-0.12c1.14-0.14,1.82,0.33,2.09,1.29
		c0.26,0.94,0.56,1.9,0.8,2.83c0.24,0.93,0.4,1.88,0.47,2.84c0.06,0.79-0.13,1.28-0.55,1.46c-0.42,0.19-1.01,0.09-1.74-0.28
		c-0.46-0.25-0.88-0.51-1.25-0.8c-0.37-0.29-0.71-0.66-1.01-1.11c-0.35-0.53-0.88-1.08-1.59-1.65c-1.55-1.21-3.38-1.63-5.48-1.24
		c-1.09,0.22-2.2,0.35-3.33,0.4c-1.13,0.05-2.28,0.18-3.4,0.33c-1.13,0.15-2.2,0.27-2.5,1.52c-0.4,1.64,0.4,4.32,0.57,6.01
		c0,1.72,0.34,3.51,0.51,5.22c0.17,1.74,0.06,3.83,0.54,5.51c0.72,2.51,4.99,1.23,7.06,1.14c1.13-0.05,2.15-0.29,3.08-0.73
		c0.92-0.44,1.55-1.26,1.89-2.47c0.1-0.34,0.29-0.69,0.57-1.07c0.32-0.42,0.68-0.6,1.1-0.55c0.42,0.06,0.76,0.33,1.01,0.83
		c0.36,0.7,0.61,1.38,0.75,2.05c0.22,1.2,0.44,2.41,0.64,3.63c0.2,1.22,0.26,2.45,0.19,3.7c0.03,0.33,0.02,0.58-0.01,0.75
		c-0.06,0.33-0.13,0.65-0.22,0.96c-0.08,0.31-0.34,0.49-0.77,0.53c-0.47,0.04-0.79-0.07-0.97-0.34c-0.17-0.27-0.32-0.56-0.43-0.89
		c-0.43-1.11-1.09-1.88-1.97-2.3c-0.88-0.42-1.83-0.66-2.83-0.7c-1.13-0.05-2.27-0.01-3.41,0.11c-1.14,0.12-2.27,0.26-3.39,0.41
		c-0.39,0.06-0.69,0.19-0.91,0.37c-0.23,0.18-0.29,0.49-0.21,0.94c0.18,1.06,0.34,2.12,0.48,3.18c0.14,1.06,0.32,2.14,0.48,3.18
		c0.13,0.8,0.28,1.29,0.49,1.42c0.21,0.13,0.71,0.18,1.47,0.13c1.78-0.12,3.57-0.25,5.31-0.34c1.74-0.09,3.55-0.11,5.32-0.15
		c0.97-0.02,1.87-0.26,2.66-0.65c0.79-0.39,1.53-0.83,2.22-1.31c0.33-0.2,0.54-0.44,0.62-0.73c0.09-0.29,0.16-0.6,0.22-0.93
		c0.05-0.54,0.21-0.95,0.49-1.23c0.24-0.29,0.53-0.4,0.88-0.35c0.35,0.05,0.64,0.26,0.88,0.58c0.22,0.3,0.39,0.6,0.45,0.92
		c0.07,0.31,0.15,0.64,0.26,0.97c0.12,0.54,0.26,1.08,0.4,1.6c0.14,0.52,0.27,1.04,0.4,1.54
		C254.33,330.89,254.2,331.74,253.69,332.39z M297.94,298.18c-0.17,0.13-0.34,0.26-0.52,0.41c-0.35,0.21-0.68,0.41-1,0.6
		c-0.32,0.19-0.66,0.39-1,0.6c-1.2,0.78-1.71,1.88-1.53,3.3c0.05,0.18,0.07,0.35,0.05,0.51c-0.02,0.17,0,0.34,0.05,0.52
		c0.83,7.06,1.37,14.11,1.75,21.03c0.09,1.66,0.18,3.33,0.24,4.99c0.06,1.66,0.01,3.28-0.14,4.87c0,0.13,0.01,0.26,0.02,0.41
		c0.01,0.15-0.03,0.28-0.11,0.39c-0.17,1.2-0.59,1.76-1.25,1.68c-0.66-0.08-1.37-0.53-2.13-1.36c-0.27-0.38-0.55-0.74-0.84-1.07
		c-0.29-0.34-0.55-0.69-0.78-1.06c-1.32-1.96-2.67-3.88-4.06-5.77c-1.39-1.89-2.8-3.78-4.22-5.66c-1.2-1.61-2.39-3.24-3.57-4.9
		c-1.19-1.65-2.37-3.31-3.54-4.97c-2.42-3.54-5.86-6.56-8.77-9.69c0.11,4.61,0.32,9.22,0.59,13.82c0.23,3.96-0.42,9.54,2.05,12.89
		c0.77,1.04,1.67,2.02,2.71,2.95c0.09,0.09,0.18,0.16,0.27,0.21c0.09,0.05,0.18,0.12,0.27,0.21c0.27,0.19,0.52,0.39,0.77,0.6
		c0.25,0.21,0.3,0.5,0.15,0.86c-0.11,0.33-0.3,0.51-0.58,0.57c-0.27,0.06-0.6,0.03-0.93-0.02c-1.48-0.23-3.15-0.34-4.7-0.58
		c-0.78-0.14-1.55-0.29-2.33-0.45c-0.78-0.16-1.57-0.21-2.38-0.18c-0.25,0.02-0.49,0-0.71-0.07c-0.22-0.07-0.38-0.26-0.48-0.55
		c-0.16-0.51,0-0.9,0.5-1.16c0.04,0,0.07-0.01,0.09-0.02c0.02-0.02,0.05-0.03,0.09-0.03c1.21-0.51,1.95-1.27,2.23-2.27
		c0.66-2.36-0.3-5.72-0.49-8.18c-0.24-3.18-0.49-6.35-0.73-9.53c-0.21-2.7-0.41-5.39-0.62-8.09c-0.11-1.48,0.28-4.85-0.69-6.09
		c-0.22-0.28-0.82-0.6-1.81-0.97c-0.45-0.14-0.85-0.31-1.19-0.51c-0.34-0.2-0.6-0.53-0.76-0.99c-0.17-0.5-0.16-0.91,0.02-1.22
		c0.18-0.31,0.53-0.43,1.07-0.38c1.16,0.12,2.31,0.19,3.46,0.21c1.15,0.03,2.29-0.06,3.43-0.25c0.44-0.06,0.81,0.04,1.11,0.31
		c0.3,0.27,0.62,0.56,0.95,0.87c1.02,0.94,1.93,1.96,2.72,3.06c0.79,1.1,1.61,2.18,2.45,3.26c1.09,1.43,2.22,2.83,3.41,4.22
		c1.19,1.39,2.38,2.79,3.58,4.22c1.2,1.43,2.36,2.88,3.47,4.35c1.11,1.48,2.19,2.99,3.26,4.56c1.48,2.13,3.06,4.1,4.76,6.07
		c0.14-3.06-0.15-5.8-0.29-8.83c-0.12-2.57-0.28-5.16-0.4-7.69c-0.06-1.18-0.22-2.36-0.5-3.52c-0.29-1.16-0.56-2.3-0.83-3.43
		c-0.16-0.74-0.5-1.42-1.01-2.02c-0.51-0.61-1.02-1.19-1.52-1.76c-0.14-0.18-0.3-0.34-0.48-0.46c-0.18-0.12-0.36-0.26-0.55-0.41
		c-0.41-0.38-0.59-0.74-0.51-1.07c0.07-0.28,0.21-0.46,0.41-0.53c0.19-0.06,0.43-0.08,0.69-0.05c0.57,0.02,1.15,0.08,1.73,0.19
		c1.38,0.24,2.73,0.53,4.07,0.87c1.34,0.33,2.71,0.47,4.12,0.4c0.75,0.01,1.27,0.38,1.56,1.1
		C298.15,297.84,298.12,298.06,297.94,298.18z M335.2,340.82c-0.56,0.58-1.37,0.77-2.44,0.56c-3.17-0.54-6.31-1.08-9.41-1.6
		c-3.1-0.52-6.22-1.07-9.35-1.65c-1.41-0.26-2.79-0.52-4.17-0.79c-1.38-0.27-2.75-0.52-4.12-0.76c-1.11-0.19-2.13-0.58-3.04-1.16
		c-0.57-0.35-0.86-0.82-0.88-1.42c0.03-0.33,0.16-0.55,0.4-0.64c0.23-0.09,0.48-0.13,0.73-0.13c1.76,0.09,3.77,0.45,4.35-1.44
		c0.61-1.99,0.3-4.53,0.24-6.59c-0.12-4.63-0.25-9.26-0.37-13.88c-0.06-2.26-0.12-4.52-0.18-6.79c-0.04-1.52,0.21-3.75-1.23-4.77
		c-0.27-0.19-0.63-0.44-1.07-0.7c-0.48-0.29-0.95-0.56-1.38-0.81c-0.43-0.26-0.84-0.54-1.25-0.85c-0.23-0.2-0.42-0.41-0.58-0.63
		c-0.16-0.21-0.19-0.45-0.12-0.69c0.08-0.28,0.23-0.46,0.45-0.51c0.22-0.05,0.46-0.08,0.72-0.09c0.88,0.04,1.76,0.11,2.62,0.22
		c0.86,0.11,1.73,0.18,2.61,0.23c0.7,0.06,1.39,0.15,2.07,0.25c0.68,0.1,1.39,0.19,2.13,0.27c2.39,0.2,4.78,0.52,7.17,0.96
		c2.39,0.44,4.79,0.84,7.18,1.2c0.62,0.11,1.22,0.2,1.8,0.27c0.57,0.08,1.17,0.15,1.79,0.21c1.15,0.07,1.8,0.67,2,1.71
		c0.2,1.02,0.43,2.06,0.61,3.07c0.18,1.01,0.28,2.01,0.28,3.01c0,0.82-0.22,1.3-0.65,1.41c-0.44,0.12-1.01-0.08-1.72-0.6
		c-0.44-0.34-0.84-0.69-1.2-1.05c-0.36-0.37-0.67-0.81-0.94-1.33c-0.31-0.62-0.8-1.29-1.47-2.01c-1.84-1.97-7-2.4-9.56-2.79
		c-3-0.46-5.02-1.06-5.32,2.65c-0.35,4.34,0.02,8.87,0.02,13.23c0,0.92,0.01,1.87,0.41,2.69c1.02,2.09,5.18,2.05,7.15,2.4
		c1.13,0.2,2.17,0.18,3.12-0.08c0.95-0.26,1.64-0.97,2.06-2.15c0.13-0.32,0.34-0.65,0.64-0.99c0.34-0.37,0.72-0.49,1.14-0.34
		c0.41,0.14,0.73,0.49,0.96,1.05c0.31,0.79,0.51,1.54,0.61,2.25c0.14,1.28,0.27,2.57,0.39,3.87c0.12,1.3,0.1,2.58-0.06,3.85
		c0,0.35-0.02,0.6-0.06,0.77c-0.08,0.33-0.18,0.65-0.28,0.95c-0.11,0.3-0.37,0.44-0.8,0.4c-0.48-0.05-0.79-0.23-0.94-0.54
		c-0.15-0.31-0.28-0.65-0.37-1.01c-0.36-1.24-0.96-2.16-1.81-2.77c-0.85-0.61-1.78-1.06-2.77-1.32c-1.12-0.3-2.27-0.51-3.41-0.65
		c-1.15-0.14-2.28-0.27-3.41-0.38c-0.39-0.03-0.7,0.03-0.93,0.16c-0.24,0.13-0.33,0.43-0.27,0.92c0.11,1.13,0.2,2.26,0.27,3.39
		c0.07,1.13,0.17,2.27,0.27,3.39c0.07,0.86,0.19,1.39,0.39,1.58c0.2,0.19,0.69,0.36,1.45,0.49c1.78,0.31,3.58,0.58,5.32,0.86
		c1.74,0.29,3.54,0.65,5.32,0.95c0.96,0.17,1.89,0.1,2.7-0.16s1.58-0.57,2.31-0.95c0.34-0.15,0.57-0.36,0.67-0.65
		c0.11-0.28,0.2-0.59,0.29-0.92c0.08-0.55,0.27-0.95,0.57-1.19c0.26-0.25,0.56-0.33,0.91-0.22c0.34,0.11,0.62,0.37,0.84,0.75
		c0.2,0.34,0.35,0.69,0.39,1.02c0.04,0.33,0.11,0.68,0.2,1.05c0.09,0.58,0.19,1.16,0.3,1.72c0.11,0.57,0.21,1.12,0.29,1.66
		C335.95,339.38,335.75,340.23,335.2,340.82z M377.93,345.6c-0.09,0.21-0.34,0.31-0.75,0.31c-0.41,0-0.87-0.04-1.39-0.1
		c-0.52-0.07-1.02-0.16-1.51-0.26c-0.49-0.11-0.87-0.16-1.13-0.17c-1.42-0.07-2.88-0.25-4.38-0.52c-1.5-0.27-2.96-0.61-4.37-1.01
		c-0.34-0.11-0.64-0.24-0.9-0.4c-0.25-0.16-0.45-0.43-0.57-0.8c-0.08-0.28-0.12-0.53-0.12-0.75c0-0.22,0.14-0.39,0.39-0.52
		c0.22-0.09,0.43-0.17,0.65-0.24c0.22-0.07,0.43-0.15,0.65-0.24c0.48-0.26,0.79-0.55,0.92-0.86c0.14-0.31,0.08-0.75-0.17-1.32
		c-0.63-1.26-1.21-2.55-1.75-3.84c-0.54-1.29-1.24-2.55-2.09-3.76c-0.21-0.31-0.44-0.55-0.67-0.75c-0.24-0.2-0.53-0.28-0.88-0.26
		c-0.87,0.06-1.76,0.03-2.67-0.1c-0.91-0.13-1.8-0.23-2.66-0.3c-0.48,0-0.85,0.08-1.11,0.25c-0.26,0.17-0.39,0.52-0.4,1.04
		c-0.01,0.75-0.01,1.48-0.02,2.2c-0.01,0.72,0.01,1.47,0.04,2.21c0.04,0.97,0.25,1.77,0.66,2.4c0.4,0.63,1.08,1.12,2.02,1.48
		c0.34,0.15,0.68,0.33,1.03,0.53c0.34,0.2,0.64,0.5,0.89,0.9c0.17,0.25,0.33,0.51,0.47,0.76c0.15,0.25,0.15,0.51,0.02,0.79
		c-0.13,0.28-0.32,0.45-0.55,0.49c-0.24,0.04-0.51,0.06-0.81,0.04c-0.86-0.12-1.73-0.23-2.61-0.31c-0.88-0.08-1.77-0.3-2.68-0.66
		c-1.26-0.47-2.49-0.71-3.7-0.74c-1.21-0.02-2.43-0.12-3.68-0.28c-1.54-0.35-2.34-0.84-2.38-1.46c0-0.3,0.18-0.65,0.55-1.03
		c0.36-0.38,1.06-0.58,2.09-0.6c0.69,0.09,1.22,0.09,1.61-0.01c0.39-0.1,0.67-0.3,0.84-0.59c0.17-0.29,0.28-0.69,0.33-1.18
		c0.04-0.49,0.12-1.11,0.2-1.83c0.1-0.89,0.08-1.81-0.02-2.73c-0.1-0.91-0.18-1.84-0.22-2.76c-0.08-1.5-0.1-2.99-0.05-4.47
		c0.05-1.48,0.05-2.97,0.02-4.46c-0.05-2.39-0.08-4.81-0.14-7.2c-0.06-2.39-0.04-4.78,0.06-7.17c0-0.48-0.11-0.9-0.33-1.27
		c-0.22-0.37-0.51-0.71-0.86-1.04c-0.35-0.37-0.74-0.66-1.16-0.86c-0.42-0.21-0.85-0.46-1.29-0.75c-0.92-0.42-1.42-1.82-0.38-2.35
		c0.72-0.37,2.81,0.4,3.56,0.51c3.03,0.48,6.08,0.88,9.11,1.34c1.48,0.23,2.98,0.56,4.42,0.91s2.83,0.84,4.17,1.48
		c1.34,0.64,2.63,1.43,3.85,2.38c1.22,0.95,2.35,2.12,3.38,3.53c0.52,0.7,0.91,1.42,1.18,2.15c0.27,0.73,0.48,1.49,0.64,2.26
		c0.23,1.33,0.42,2.65,0.56,3.95c0.14,1.31,0.07,2.61-0.23,3.9c-0.34,1.5-0.87,2.84-1.57,4.04c-0.71,1.19-1.74,2.16-3.11,2.9
		c-0.88,0.47-1.37,0.9-1.46,1.31c-0.09,0.41,0.18,1.11,0.74,2.09c0.59,1.04,1.14,2.17,1.65,3.28c0.52,1.11,1.07,2.23,1.65,3.35
		c0.46,0.83,0.97,1.66,1.53,2.46c0.56,0.81,1.4,1.31,2.52,1.5c0.34,0.06,0.66,0.21,0.96,0.47c0.29,0.25,0.57,0.51,0.82,0.77
		c0.29,0.32,0.51,0.62,0.65,0.91C378.2,344.84,378.15,345.19,377.93,345.6z M421.82,334.66c-0.14,0.22-0.37,0.39-0.68,0.52
		c-0.76,0.38-1.39,0.83-1.88,1.37c-0.49,0.54-0.88,1.13-1.18,1.78c-0.3,0.64-0.53,1.33-0.71,2.07c-0.17,0.74-0.33,1.49-0.46,2.26
		c-0.18,0.81-0.29,1.62-0.34,2.43c-0.05,0.82-0.07,1.66-0.08,2.52c0.01,1.36-0.3,2.36-0.91,2.97c-0.62,0.62-1.57,0.94-2.86,0.97
		c-0.86,0.02-1.71,0.06-2.56,0.12c-0.84,0.06-1.69,0.07-2.55,0.03c-2.92-0.15-5.78-0.58-8.59-1.26c-2.81-0.69-5.54-1.9-8.19-3.63
		c-1.6-1.03-2.92-2.33-3.97-3.88c-1.05-1.55-1.93-3.22-2.65-5.03c-0.96-2.43-1.53-4.84-1.69-7.23c-0.16-2.39-0.17-4.78,0-7.17
		c0.07-0.71,0.21-1.37,0.42-1.98c0.22-0.61,0.45-1.22,0.69-1.81c1.73-4.26,3.98-7.92,8.31-10.05c3.62-1.76,7.51-2.67,11.65-2.75
		c2.36-0.11,4.66,0.02,6.89,0.38c2.23,0.36,4.46,0.84,6.69,1.45c0.48,0.11,0.88,0.31,1.2,0.6c0.32,0.29,0.44,0.68,0.37,1.17
		c-0.27,1.58-0.31,3.13-0.14,4.66c0.18,1.53,0.24,3.07,0.19,4.61c-0.01,0.23-0.29,0.4-0.82,0.5c-0.53,0.11-1-0.16-1.41-0.82
		c-0.32-0.56-0.55-0.99-0.69-1.27c-0.14-0.28-0.3-0.72-0.49-1.32c-0.33-1.2-0.8-2.17-1.4-2.91c-0.6-0.74-1.3-1.32-2.1-1.73
		c-0.8-0.42-1.67-0.71-2.61-0.9c-0.95-0.18-1.93-0.32-2.94-0.4c-0.62-0.05-1.25-0.08-1.89-0.09c-0.64-0.01-1.28,0-1.9,0.03
		c-1.38,0.05-2.68,0.29-3.89,0.73c-1.22,0.43-2.41,0.97-3.59,1.6c-1.68,0.93-2.93,2.17-3.76,3.72c-0.83,1.56-1.44,3.27-1.81,5.15
		c-0.33,1.65-0.5,3.35-0.51,5.07c-0.02,1.72,0.11,3.44,0.4,5.13c0.47,2.62,1.28,5.07,2.43,7.33c1.15,2.27,2.88,4.19,5.19,5.75
		c1.64,1.15,3.46,1.78,5.49,1.87c0.21,0.02,0.62,0.07,1.22,0.14c0.6,0.07,1.26,0.13,1.96,0.21c0.71,0.07,1.4,0.13,2.06,0.17
		c0.67,0.04,1.17,0.08,1.52,0.11c0.73,0.02,1.21-0.07,1.44-0.28c0.23-0.21,0.38-0.67,0.46-1.39c0.15-1.21,0.27-2.43,0.36-3.65
		c0.09-1.22,0.18-2.44,0.29-3.65c0.08-0.85,0.06-1.39-0.08-1.6c-0.14-0.22-0.59-0.47-1.36-0.76c-0.98-0.4-1.63-0.84-1.96-1.32
		c-0.32-0.48-0.46-1.22-0.41-2.21c0.04-0.81,0.41-1.2,1.11-1.19c0.18-0.03,0.35-0.06,0.53-0.09c0.17-0.03,0.35-0.01,0.52,0.04
		c1.69,0.27,3.37,0.47,5.04,0.58c1.67,0.11,3.36,0.2,5.06,0.28c0.48,0.02,0.82,0.06,1.04,0.12c0.43,0.15,0.68,0.43,0.77,0.82
		C422.14,333.93,422.06,334.3,421.82,334.66z M462.15,308.72c-0.33,0.28-0.74,0.5-1.24,0.66c-1.26,0.41-2.25,1.04-2.98,1.91
		c-0.73,0.87-1.41,1.87-2.02,3c-1.95,3.39-3.65,6.76-5.12,10.15c-1.47,3.38-3.03,6.76-4.68,10.12c-0.36,0.76-0.6,1.51-0.73,2.25
		c-0.12,0.74-0.21,1.5-0.28,2.29c-0.08,1.01-0.17,2-0.27,2.97c-0.1,0.97-0.16,1.97-0.2,2.97c-0.05,1.24,0.08,2.13,0.4,2.66
		c0.32,0.54,1.02,0.98,2.11,1.32c0.21,0.08,0.39,0.15,0.56,0.21c0.17,0.06,0.35,0.13,0.56,0.2c0.4,0.34,0.51,0.79,0.34,1.36
		c-0.4,1.6-16.29,2.93-16.75,0.91c-0.1-0.41-0.1-0.8,0.02-1.17c0.11-0.36,0.39-0.66,0.83-0.89c0.22-0.09,0.45-0.17,0.69-0.24
		c0.24-0.07,0.47-0.15,0.69-0.24c0.48-0.14,0.91-0.31,1.29-0.52c0.38-0.21,0.79-0.43,1.24-0.67c1.25-0.7,1.96-1.78,2.1-3.2
		c0.24-3.25,0.36-4.87,0.6-8.12c0.02-0.32-0.01-0.61-0.1-0.86c-0.09-0.25-0.19-0.51-0.3-0.78c-0.74-1.77-1.47-3.53-2.19-5.3
		c-0.72-1.77-1.41-3.56-2.07-5.39c-0.55-1.5-1.13-3-1.73-4.51c-0.6-1.5-1.2-3.01-1.81-4.52c-0.62-1.27-1.44-2.28-2.45-3.02
		c-0.34-0.18-0.58-0.33-0.7-0.42c-0.38-0.23-0.76-0.49-1.11-0.77c-0.36-0.28-0.48-0.71-0.35-1.3c0.07-0.41,0.36-0.72,0.86-0.94
		c1.33-0.59,2.91-0.12,4.28,0.07c1.81,0.26,3.63,0.41,5.46,0.42c1.15,0.01,3.45-0.64,4.11,0.69c0.23,0.47,0.19,0.97-0.11,1.48
		c-0.2,0.33-0.48,0.52-0.84,0.58c-0.36,0.06-0.7,0.21-1.02,0.45c-0.63,0.2-1.01,0.51-1.12,0.93c-0.12,0.42-0.05,1.01,0.2,1.78
		c0.4,1.18,0.79,2.34,1.16,3.5c0.38,1.15,0.83,2.27,1.36,3.35c0.53,1.08,0.94,2.19,1.22,3.35c0.28,1.15,0.69,2.25,1.22,3.28
		c0.11,0.22,0.2,0.46,0.27,0.71c0.07,0.25,0.25,0.37,0.56,0.35c0.3-0.02,0.52-0.14,0.65-0.38c0.13-0.24,0.24-0.47,0.35-0.71
		c0.37-0.8,0.71-1.58,1.03-2.33c0.32-0.75,0.64-1.53,0.97-2.34c0.73-1.61,1.55-3.18,2.43-4.72c1.25-2.17,3.21-4.78,3.29-7.38
		c0.01-0.46-0.27-0.78-0.76-0.82c-0.88-0.07-1.74-0.15-2.33-0.45c-0.59-0.29-0.83-0.66-0.7-1.08c0.12-0.42,0.3-0.82,0.52-1.18
		c0.23-0.36,0.58-0.56,1.07-0.61c2.27-0.02,4.72-0.51,6.99-0.84c1.31-0.19,3.03-0.85,4.34-0.45c0.36,0.11,0.57,0.41,0.61,0.91
		C462.64,307.99,462.48,308.44,462.15,308.72z M366.92,313.84c-0.23-1.68-0.85-3.08-1.84-4.22c-1-1.14-2.33-2.04-4-2.72
		c-1.14-0.46-2.25-0.7-3.31-0.73c-1.06-0.03-2.12-0.05-3.18-0.06c-0.44,0.01-0.74,0.16-0.9,0.44c-0.16,0.28-0.24,0.62-0.24,1.01
		c0,0.39-0.02,0.87-0.05,1.44c-0.03,0.57-0.04,1.09-0.05,1.57c-0.05,0.61-0.08,1.21-0.08,1.83c-0.05,0.87-0.04,1.74,0.04,2.61
		c0.08,0.87,0.01,1.68-0.22,2.43c-0.27,0.96-0.39,1.93-0.35,2.9c0.04,0.97,0.03,1.94-0.02,2.89c-0.01,0.66,0.11,1.12,0.35,1.38
		c0.24,0.26,0.68,0.51,1.33,0.71c0.73,0.23,1.47,0.47,2.21,0.74c0.73,0.27,1.49,0.41,2.21,0.47c1.15,0.1,2.21,0.16,3.1,0.1
		c0.89-0.06,1.67-0.25,2.33-0.58c0.66-0.32,1.2-0.84,1.63-1.54c0.43-0.7,0.8-1.65,1.07-2.83c0.3-1.27,0.4-2.58,0.34-3.89
		C367.24,316.47,367.12,315.15,366.92,313.84z M100.56,137.48l-25.05,8.02l16.09,50.26l25.05-8.02L100.56,137.48z"/>
	<path class="st2" d="M473.89,163.98c-1.28,0.2-2.52,1.03-3.71,2.46c-4.6,9.09-9.42,16.52-14.45,22.22
		c-5.03,5.71-9.59,9.93-13.68,12.81c0.34-5.02,0.81-10.02,1.41-14.98c0.6-4.96,1.06-9.65,1.41-14.03c0.34-4.38,0.43-8.3,0.26-11.75
		c-0.17-3.45-0.82-6.12-1.79-7.95c-1.04-1.96-2.35-3.21-3.96-3.6c-1.62-0.39-3.24-0.32-4.86,0.21c-1.62,0.53-3.16,1.45-4.6,2.74
		c-1.45,1.3-2.52,2.66-3.19,4.1c-2.39,4.81-4.77,9.74-7.16,14.78c-2.39,5.05-4.65,9.46-6.78,13.24c-2.13,3.78-4.05,6.59-5.75,8.43
		c-1.7,1.84-3.07,1.88-4.09,0.15c-0.68-1.2-0.98-3.75-0.89-7.61c0.09-3.86,0.34-7.98,0.77-12.36c0.42-4.38,0.9-8.48,1.41-12.29
		c0.51-3.81,0.99-6.38,1.28-7.59c0.39-1.66-0.17-3.12-1.53-4.16c-1.37-1.04-2.99-1.73-4.86-2.06c-1.88-0.33-3.71-0.24-5.5,0.29
		c-1.79,0.53-2.94,1.55-3.45,3.08c-2.39,7.99-3.8,15.28-4.22,21.89c-0.02,0.37-0.04,0.72-0.05,1.09c-1.48,1.86-3.07,3.66-4.8,5.39
		c-2.98,2.97-6.05,5.65-9.2,8.03c-3.16,2.38-6.18,4.44-9.08,6.17c-2.9,1.74-5.46,3.04-7.67,3.95c-2.39-3.82-5.67-7.23-9.84-10.25
		c-4.18-3.02-8.91-6.06-14.19-9.1c-1.02-0.6-1.54-0.98-1.54-1.14c0-0.16,0.68-0.7,2.05-1.62c2.38-1.94,4.99-4.54,7.8-7.83
		c2.81-3.28,5.41-6.83,7.8-10.65c2.38-3.82,4.39-7.7,6.01-11.65c1.62-3.94,2.39-7.67,2.3-11.15c-0.09-3.49-1.28-6.49-3.58-9
		c-2.3-2.52-6.06-4.17-11.12-5.07c-4.07-0.72-8.23-0.14-12.4,1.88c-4.18,2.01-8.1,4.59-11.76,7.71c-3.66,3.13-6.95,6.45-9.84,9.97
		c-2,2.42-3.7,4.55-5.13,6.4c-0.37,0.14-0.79,0.39-1.26,0.78c-11.42,15-20.16,26.41-26.21,33.96c-6.05,7.56-9.67,10.94-10.87,9.93
		c-0.68-0.6-1.02-2.39-1.02-5.37c0-2.98,0.26-6.53,0.77-10.63c0.51-4.11,1.15-8.63,1.92-13.57c0.77-4.94,1.57-9.67,2.43-14.2
		c0.85-4.52,1.66-8.64,2.43-12.36c0.77-3.73,1.32-6.44,1.66-8.14c0.17-0.94-0.34-2.09-1.53-3.44c-1.19-1.36-2.69-2.57-4.47-3.61
		c-1.79-1.05-3.75-1.7-5.88-1.96c-2.13-0.26-4.22,0.28-6.26,1.61c-0.68,3.29-1.24,5.92-1.66,7.88c-0.43,1.96-0.98,4.51-1.66,7.65
		c-6.14-5.12-11.81-7.99-17-8.67c-5.2-0.68-9.85,0.24-13.94,2.65c-4.09,2.41-7.59,5.96-10.48,10.53c-2.9,4.58-5.11,9.58-6.65,14.92
		c-0.11,0.39-0.21,0.78-0.32,1.18c-0.68,1.28-1.38,2.6-2.11,3.97c-3.32,6.25-6.86,12.71-10.61,19.44
		c-3.75,6.73-7.29,12.6-10.61,17.56c-3.32,4.96-6.23,8.36-8.69,10.1c-2.47,1.75-3.94,0.49-4.47-3.81
		c-0.49-3.98-0.64-9.19-0.38-15.58c0.26-6.39,0.6-12.6,1.02-18.65c0.43-6.04,1.15-13.53,2.17-22.45c0.17-0.22,0.89-0.97,2.17-2.22
		c1.28-1.24,2.72-2.65,4.35-4.2c1.62-1.55,3.19-3.05,4.73-4.52c1.53-1.47,2.56-2.49,3.07-3.1c4.26-4.78,8.35-9.92,12.27-15.49
		c3.92-5.57,7.29-11.22,10.1-17.07c2.81-5.85,4.86-11.79,6.14-17.92c1.28-6.13,1.41-12.14,0.38-18.04
		c-0.51-2.87-1.53-5.59-3.07-8.13c-1.53-2.54-3.41-4.71-5.62-6.47c-2.21-1.76-4.69-3.13-7.42-4.05c-2.72-0.93-5.54-1.24-8.44-0.93
		c-5.29,0.52-10.02,4.4-14.19,11.48c-4.18,7.09-7.84,16.1-10.99,26.92c-3.15,10.82-5.8,22.76-7.93,35.71
		c-2.13,12.96-3.79,25.68-4.99,38.07c-1.36,14.1-1.92,25.41-1.66,33.9s1.07,14.94,2.43,19.4c1.36,4.46,3.24,7.25,5.62,8.47
		c2.38,1.22,5.16,1.44,8.18,0.92c3.16-0.54,6.77-2.82,10.61-6.93c3.84-4.11,7.67-9.06,11.5-14.86c3.84-5.8,7.54-12.02,11.12-18.7
		c1.05-1.96,2.06-3.87,3.06-5.75c0.07,4.3,0.75,8.12,2.06,11.46c1.53,3.93,3.88,6.8,7.03,8.74c3.15,1.93,7.2,2.31,12.15,1.29
		c3.24-0.67,6.3-3.2,9.2-7.61c2.9-4.4,5.54-9.41,7.93-15.03c2.39-5.62,4.52-11.32,6.39-17.1c0.29-0.89,0.58-1.76,0.86-2.59
		c0.39-1.15,2.1-0.69,1.88,0.5c-0.98,5.31-1.72,10.02-2.23,14.12c-0.85,6.92-1.17,12.76-1.02,17.43c0.2,6.43,1.28,11.45,3.32,14.99
		c2.04,3.54,4.54,5.31,7.42,5.42c3.38,0.13,7.07-1.36,11-4.53c3.92-3.17,7.5-6.5,10.74-10.02c4.6-5.01,9.37-11.03,14.32-18.08
		c4.45-6.34,8.82-12.91,13.13-19.72c0.15-0.08,0.29-0.2,0.42-0.36c1.02-1.51,2.9-3.8,5.62-6.87c2.72-3.07,5.79-5.88,9.2-8.43
		c3.41-2.55,6.78-4.34,10.1-5.38c3.32-1.04,6.01-0.39,8.05,1.93c0.85,1.04,0.89,2.46,0.13,4.26c-0.77,1.81-1.96,3.83-3.58,6.06
		c-1.62,2.22-3.49,4.62-5.62,7.19c-2.13,2.57-4.18,5.04-6.14,7.41c-1.96,2.38-3.71,4.61-5.24,6.69c-1.53,2.09-2.39,3.84-2.56,5.24
		c-0.51,3.25,0.17,5.85,2.04,7.8c1.87,1.95,4.26,3.97,7.16,6.04c2.9,2.07,5.92,4.5,9.08,7.29c3.15,2.79,5.75,6.71,7.8,11.76
		c0.17,0.37-1.2,1.14-4.09,2.3c-2.9,1.16-6.48,2.69-10.74,4.6c-4.26,1.91-8.82,4.19-13.68,6.85c-4.86,2.66-9.27,5.75-13.17,9.29
		c-3.75,3.39-6.48,6.78-8.18,10.09c-1.7,3.3-2.6,6.52-2.69,9.65c-0.09,3.12,0.56,6.06,1.92,8.79c1.37,2.74,3.24,5.21,5.62,7.41
		c2.9,2.65,6.35,4.81,10.36,6.5c4,1.68,8.22,2.73,12.66,3.12c4.43,0.38,8.95,0,13.55-1.18c4.6-1.18,9.06-3.31,13.04-6.44
		c3.91-3.07,7.33-7.02,10.23-11.54c2.9-4.52,5.03-9.41,6.39-14.65c1.36-5.24,1.83-10.73,1.41-16.48c-0.43-5.74-2.01-11.43-4.73-17.1
		c5.28-2.42,11.12-6.26,17.51-11.62c3.65-3.07,7.12-6.54,10.41-10.38c0.17,3.13,0.57,5.97,1.22,8.5c1.19,4.64,2.98,8.18,5.37,10.57
		c2.38,2.39,5.2,3.33,8.44,2.78c3.75-0.65,7.76-3.33,12.02-8.07c4.26-4.74,8.6-12.15,13.04-22.24c-0.51,4.35-0.98,8.9-1.41,13.64
		c-0.43,4.75-0.85,9.13-1.28,13.15c-0.43,4.02-0.85,7.55-1.28,10.6c-0.43,3.05-0.73,5.05-0.9,6.01
		c-5.62,3.64-10.91,7.56-15.85,11.85c-4.94,4.29-9.63,8.55-14.06,12.83c-6.48,6.2-10.9,11.76-13.3,16.92
		c-2.38,5.16-3.36,9.71-2.94,13.67c0.43,3.96,2.04,7.24,4.86,9.81c2.81,2.57,6.26,4.22,10.36,4.9c8.35,1.38,15.56-0.28,21.61-4.77
		c6.05-4.49,11.12-10.73,15.21-18.5c4.09-7.78,7.25-16.54,9.46-26.14c2.21-9.6,3.84-18.98,4.86-28.08c4.94-3.24,10.23-8,15.85-14.42
		c5.62-6.42,11.42-15.28,17.39-26.69C475.38,164.68,475.17,163.78,473.89,163.98z M168.1,134.22c0.26-3.07,0.68-6.85,1.28-11.34
		c0.6-4.48,1.28-9.43,2.05-14.85c0.77-5.41,1.7-10.84,2.81-16.27c1.11-5.42,2.39-10.64,3.84-15.65c1.45-5,3.02-9.34,4.73-12.98
		c1.19-2.71,2.68-4.92,4.47-6.6c1.79-1.68,3.58-2.63,5.37-2.87c1.79-0.24,3.54,0.37,5.24,1.82c1.7,1.45,3.15,3.89,4.35,7.3
		c0.1,0.47,0.15,0.71,0.26,1.18c1.19,5.99,1.11,12.33-0.26,19.02c-1.36,6.69-3.67,13.3-6.9,19.94c-3.24,6.65-7.25,13.03-12.02,19.35
		c-4.77,6.33-9.97,12.11-15.6,17.53C167.72,139.15,167.85,137.29,168.1,134.22z M240.85,148.58c-1.7,5.01-3.58,10.03-5.62,15.06
		c-2.05,5.03-4.14,9.61-6.27,13.73c-2.13,4.12-4.22,6.51-6.26,7.15c-2.04,0.8-3.54-0.26-4.47-3.22c-0.94-2.96-1.28-6.74-1.02-11.34
		c0.26-4.6,1.06-9.54,2.43-14.81c1.36-5.26,3.2-9.79,5.5-13.55c2.3-3.76,5.16-6.3,8.57-7.56c3.41-1.26,7.24-0.24,11.51,3.11
		C244,139.76,242.55,143.57,240.85,148.58z M340.56,226.58c-1.36,4.88-3.41,9.66-6.14,14.33c-2.72,4.66-6.14,7.9-10.23,9.7
		c-1.37,0.6-3.03,1.16-4.99,1.68c-1.96,0.52-4.01,0.86-6.14,1.02c-2.13,0.16-4.22,0.05-6.26-0.32c-2.04-0.37-3.92-1.1-5.62-2.18
		c-2.21-1.53-3.32-3.42-3.32-5.68c0-2.26,0.56-4.5,1.66-6.72c1.11-2.22,2.52-4.28,4.22-6.18c1.7-1.89,3.07-3.28,4.09-4.14
		c1.87-1.6,4.09-3.36,6.65-5.25c2.56-1.9,5.24-3.79,8.05-5.7c2.81-1.9,5.67-3.63,8.57-5.18c2.9-1.55,5.54-2.82,7.92-3.8
		c1.87-0.14,2.94,1.67,3.2,5.44C342.48,217.37,341.92,221.71,340.56,226.58z M417.77,235.35c-1.19,6.14-2.94,12.24-5.24,18.27
		c-2.3,6.02-5.2,11.28-8.69,15.72c-3.5,4.44-7.79,6.46-12.66,6.22c-3.69-0.18-6.09-1.86-7.03-5.09c-0.94-3.23-0.29-7.3,1.92-12.23
		c2.21-4.93,6.1-10.45,11.63-16.77c5.54-6.32,13.08-12.81,22.63-20.13C419.82,224.53,418.96,229.21,417.77,235.35z M486.33,208.41
		c-0.68,4.48-2.17,9.07-4.48,13.72c-2.3,4.65-4.96,8.86-7.94,12.57c-2.99,3.72-5.43,5.7-7.33,6c-0.81,0.1-1.22-0.25-1.22-1.02
		c0-0.77,0.67-2.08,2.03-3.96c2.17-2.49,4.41-6.06,6.71-10.74c2.3-4.68,3.87-8.66,4.68-11.9c-0.55,0.27-1.29,0.9-2.24,1.87
		c-0.95,0.98-1.97,1.72-3.05,2.23c-1.09,0.51-1.97,0.59-2.65,0.26c-0.68-0.33-1.02-1.53-1.02-3.59c-0.27-3.72,1.28-7.28,4.68-10.82
		c3.39-3.53,6.31-4.94,8.75-4.16C485.99,200.79,487,203.94,486.33,208.41z M258.11,50.14c0.59,0,1.15,0.08,1.69,0.24
		c0.54,0.16,0.88,0.5,1.04,1.03c0.15,0.53,0.04,0.97-0.34,1.31c-0.38,0.35-0.89,0.62-1.51,0.81c-0.28,0.12-0.64,0.18-1.07,0.19
		c-0.43,0.01-0.69,0.22-0.78,0.61c-0.08,0.35-0.09,0.85-0.01,1.51c0.08,0.66,0.14,1.18,0.17,1.57c0.33,4.01,0.49,6.02,0.82,10.03
		c0.25,3.13,0.51,6.24,0.76,9.34c0.25,3.1,0.49,6.29,0.84,9.4c0.12,1.11,0.29,2.26,0.43,3.43c0.15,1.17,0.28,2.34,0.44,3.5
		c0.11,0.82,0.25,1.33,0.39,1.52c0.14,0.18,0.65,0.36,1.53,0.54c0.31,0.07,0.6,0.17,0.86,0.27c0.26,0.1,0.53,0.27,0.8,0.5
		c0.44,0.51,0.6,0.99,0.48,1.44c-0.12,0.45-0.5,0.79-1.14,1.03c-0.24,0.12-0.62,0.22-1.11,0.3c-0.49,0.09-0.87,0.11-1.13,0.09
		c-1.31,0.01-2.5,0.03-3.58,0.08c-1.08,0.05-2.26-0.01-3.54-0.17c-0.41-0.06-0.75-0.12-1.01-0.19c-0.47-0.1-0.87-0.29-1.2-0.57
		c-0.34-0.28-0.53-0.67-0.59-1.16c-0.03-1.13,0.56-1.72,1.76-1.74c0.57-0.06,1.07-0.06,1.52-0.01c0.45,0.05,0.75-0.17,0.91-0.68
		c0.16-0.41,0.19-0.83,0.07-1.26c-0.12-0.43-0.2-0.87-0.24-1.31c-0.32-2.72-0.64-5.48-0.96-8.28c-0.33-2.8-0.63-5.66-0.92-8.58
		c-0.16-1.66-0.31-3.07-0.46-4.24c-0.14-1.17-0.22-2.5-0.26-3.96c-0.05-1.8-0.18-3.6-0.35-5.35c-0.17-1.76-0.46-3.52-0.86-5.3
		c-0.17-0.52-0.36-0.92-0.56-1.17c-0.2-0.25-0.7-0.3-1.43-0.11c-0.57,0.14-1.16,0.11-1.75-0.15c-0.59-0.26-0.98-0.62-1.15-1.09
		c-0.08-0.73,0.02-1.24,0.32-1.52c0.29-0.28,0.72-0.57,1.27-0.88c0.5-0.25,1.19-0.42,2.07-0.51c0.29-0.03,0.79-0.08,1.48-0.15
		c0.7-0.07,1.46-0.12,2.28-0.17c0.82-0.05,1.61-0.1,2.37-0.13C257.21,50.2,257.77,50.17,258.11,50.14z M303.79,66.73
		c0.01,3.53-0.06,7.12-0.2,10.77c-0.14,3.65-0.38,7.3-0.7,10.96c-0.1,0.73-0.17,1.55-0.22,2.45c-0.05,0.9-0.12,1.8-0.2,2.67
		c-0.08,0.88-0.18,1.68-0.3,2.41c-0.12,0.73-0.29,1.26-0.51,1.59c-0.23,0.53-0.57,0.91-1,1.16c-0.44,0.25-0.83,0.36-1.18,0.34
		c-0.69-0.04-1.17-0.4-1.44-1.1c-0.13-0.4-0.19-0.82-0.17-1.25c0.02-0.44,0.04-0.86,0.06-1.25c0.13-2.79,0.19-4.18,0.31-6.97
		c0.03-0.68-0.03-1.13-0.17-1.33c-0.15-0.2-0.59-0.36-1.3-0.42c-1.27-0.12-2.46-0.1-3.5-0.01c-1.04,0.09-2.18,0.2-3.42,0.32
		c-0.42,0.09-0.78,0.21-1.09,0.35c-0.31,0.14-0.47,0.41-0.48,0.8c-0.07,1.18-0.11,2.36-0.12,3.56c-0.01,1.2-0.11,2.41-0.19,3.56
		c-0.09,1.25-0.7,2.24-1.9,2.93c-0.6,0.34-1.3,0.3-2.09-0.11c-0.8-0.42-1.2-1.04-1.21-1.87c-0.01-1.76,0-3.26,0.05-4.48
		c0.04-1.23,0.13-2.56,0.21-3.97c0.11-2.03,0.19-4.11,0.29-6.17c0.1-2.05,0.2-4.11,0.3-6.17c0.26-3.14,0.45-6.26,0.55-9.37
		c0.11-3.11,0.41-6.21,0.93-9.3c0.12-1.03,0.35-2.03,0.69-3.01c0.35-0.97,0.87-1.91,1.57-2.78c1.69-2.14,3.73-3.23,6.07-3.24
		c2.33-0.01,4.5,1.03,6.43,3.13c0.77,0.87,1.39,1.79,1.86,2.77c0.47,0.98,0.84,2,1.13,3.04c0.37,1.59,0.66,3.21,0.87,4.87
		C303.93,63.27,303.95,64.98,303.79,66.73z M294.66,82.71c0.32,0.01,0.62,0.01,0.91,0c0.29-0.02,0.59-0.02,0.9-0.01
		c0.89,0.03,1.45-0.03,1.66-0.19c0.22-0.16,0.32-0.68,0.31-1.57c0.01-2.69,0.05-5.38,0.11-8.04c0.06-2.67,0.1-5.34,0.1-7.97
		c-0.01-3.42-0.6-6.91-1.78-10.44c-0.21-0.55-0.4-0.96-0.56-1.23c-0.16-0.28-0.44-0.61-0.83-1.02c-0.28-0.35-0.76-0.54-1.45-0.56
		c-0.69-0.02-1.22,0.21-1.58,0.69c-0.3,0.49-0.52,0.93-0.68,1.34c-0.15,0.41-0.29,0.89-0.42,1.42c-0.25,1.22-0.45,2.43-0.58,3.63
		c-0.14,1.2-0.27,2.41-0.4,3.63c-0.28,3.28-0.56,6.53-0.82,9.76c-0.27,3.23-0.56,6.48-0.86,9.76c-0.06,0.59,0,0.96,0.18,1.14
		c0.18,0.17,0.56,0.22,1.14,0.13c0.79-0.13,1.57-0.24,2.33-0.32C293.09,82.78,293.87,82.73,294.66,82.71z M324.89,57.49
		c0.17,0.02,0.39-0.14,0.66-0.47c0.27-0.34,0.48-0.62,0.62-0.85c1.26-1.82,3.17-3.06,5.71-3.69c1.47-0.44,2.79-0.31,3.94,0.39
		c1.16,0.69,1.8,1.7,1.94,3.01c0.09,0.56,0.12,1.09,0.1,1.58c-0.02,0.49-0.07,1-0.16,1.54c-0.63,3.62-1.35,7.2-2.13,10.74
		c-0.78,3.55-1.68,7.1-2.66,10.66c-0.14,0.53-0.25,1.07-0.33,1.62c-0.09,0.56-0.17,1.1-0.25,1.63c-0.25,1.3-0.5,2.6-0.72,3.9
		c-0.23,1.3-0.49,2.63-0.81,3.97c-0.29,1.24-0.52,2.51-0.66,3.8c-0.15,1.29-0.27,2.6-0.44,3.83c-0.13,0.95-0.39,1.63-0.72,1.97
		c-0.33,0.35-0.99,0.62-1.97,0.82c-0.88,0.17-1.51-0.14-1.9-0.94c-0.23-0.52-0.3-1.11-0.21-1.74c0.27-3.08,0.66-6.09,1.17-9.03
		c0.51-2.94,1.08-5.95,1.63-8.97c0.52-2.82,1.1-5.66,1.79-8.43c0.69-2.77,1.25-5.61,1.67-8.52c0.14-0.97,0.36-1.94,0.67-2.91
		c0.31-0.97,0.48-1.97,0.52-3.01c-0.02-0.25-0.01-0.53,0.03-0.85c0.04-0.31,0.01-0.5-0.09-0.57c-0.39-0.1-0.78,0.1-1.17,0.61
		c-0.39,0.52-0.7,0.96-0.92,1.32c-0.93,1.35-1.77,2.74-2.52,4.15c-0.75,1.41-1.44,2.86-2.08,4.36c-0.48,1.12-1.37,1.85-2.69,2.19
		c-0.8,0.2-1.47,0.11-2-0.27c-0.54-0.38-0.82-0.97-0.84-1.76c-0.04-1.14-0.07-2.3-0.08-3.48c-0.01-1.18-0.07-2.35-0.17-3.49
		c-0.02-0.89-0.07-1.77-0.15-2.64c-0.08-0.87-0.13-1.75-0.15-2.64c-0.03-0.25-0.1-0.59-0.2-1.02c-0.1-0.43-0.27-0.61-0.51-0.53
		c-0.18,0.03-0.4,0.23-0.67,0.6c-0.27,0.37-0.52,0.8-0.77,1.29c-0.25,0.49-0.49,1.02-0.71,1.59c-0.23,0.57-0.39,1.07-0.49,1.5
		c-0.35,1.34-0.67,2.94-0.96,4.78c-0.28,1.84-0.55,3.8-0.79,5.87c-0.25,2.07-0.44,4.2-0.59,6.4c-0.15,2.2-0.29,4.37-0.36,6.46
		c-0.05,1.46-0.06,2.78-0.09,3.9c-0.03,1.13-0.04,2.22-0.04,3.28c0,1.06,0.03,2.16,0.07,3.29c0.04,1.13,0.11,2.45,0.15,3.93
		c0.04,1.27-0.68,2.02-2.1,2.23c-0.66,0.09-1.22-0.07-1.68-0.48c-0.47-0.41-0.7-0.99-0.77-1.65c-0.07-0.62-0.19-1.23-0.27-1.75
		c-0.08-0.52-0.14-1.02-0.18-1.49c-0.04-0.47-0.09-0.99-0.14-1.56c-0.06-0.57-0.08-1.27-0.06-2.11c-0.05-1.28-0.07-2.87-0.05-4.76
		c0.01-1.89,0.06-3.79,0.12-5.7c0.07-1.91,0.15-3.69,0.24-5.32c0.1-1.64,0.18-2.9,0.24-3.77c0.07-0.93,0.18-1.97,0.32-3.11
		c0.14-1.14,0.32-2.32,0.52-3.53c0.2-1.21,0.42-2.42,0.66-3.63c0.23-1.21,0.53-2.32,0.9-3.32c0.22-0.62,0.44-1.26,0.67-1.9
		c0.22-0.64,0.52-1.28,0.89-1.92c0.37-0.63,0.84-1.22,1.41-1.76c0.57-0.54,1.28-1.02,2.14-1.43c1.22-0.53,2.54-0.54,3.95-0.05
		c1.41,0.49,2.41,1.3,2.98,2.4c0.48,0.94,0.82,2.02,1.02,3.22c0.07,0.35,0.14,0.79,0.19,1.32
		C324.62,57.12,324.73,57.42,324.89,57.49z M368.91,99.07c0.01,0.15,0.11,0.18,0.3,0.09c0.45-1.19,0.81-2.2,1.07-3.01
		c0.26-0.81,0.52-1.67,0.78-2.57c0.54-1.88,1.03-3.61,1.46-5.2c0.43-1.58,0.85-3.14,1.27-4.68c0.42-1.54,0.84-3.1,1.27-4.68
		c0.43-1.58,0.91-3.31,1.46-5.2c0.71-2.46,1.06-3.68,1.77-6.14c0.26-0.89,0.49-1.76,0.7-2.59c0.21-0.83,0.34-1.82,0.34-2.92
		c0-1.01,0.18-1.68,0.57-1.98c0.39-0.29,0.93-0.47,1.62-0.53c0.93-0.03,1.63,0.09,2.1,0.35c0.47,0.27,0.81,0.62,1.01,1.07
		c0.2,0.44,0.29,0.96,0.27,1.54c-0.02,0.58-0.07,1.17-0.13,1.77c-0.14,1.44-0.47,3.1-0.98,4.96c-0.51,1.87-1.06,3.67-1.65,5.37
		c-0.86,2.49-1.66,5.02-2.33,7.58c-0.67,2.56-1.5,5.13-2.35,7.65c-0.93,2.75-1.79,5.6-2.63,8.42c-0.84,2.82-1.84,5.58-2.99,8.31
		c-0.12,0.22-0.23,0.46-0.33,0.7c-0.1,0.25-0.24,0.48-0.41,0.69c-0.69,1.22-1.79,1.76-3.31,1.61c-0.6-0.07-1.2-0.4-1.78-0.98
		c-0.59-0.58-0.96-1.19-1.08-1.83c-0.13-0.68-0.22-1.39-0.32-2.07c-0.1-0.68-0.18-1.37-0.26-2.05c-0.32-4-0.55-7.75-0.67-11.25
		c-0.11-3.5-0.06-7.24,0.17-11.22c-0.02-0.81-0.04-1.74-0.06-2.78c-0.02-1.04-0.04-2.03-0.07-2.97c-0.02-0.94-0.06-1.73-0.1-2.37
		c-0.04-0.64-0.09-0.97-0.15-0.98c-0.15-0.09-0.31,0.05-0.49,0.41c-0.17,0.36-0.37,0.79-0.57,1.29c-0.21,0.5-0.41,1.02-0.59,1.56
		c-0.19,0.53-0.32,0.94-0.38,1.23c-1.02,3.74-1.99,7.28-2.91,10.63c-0.92,3.36-1.74,6.88-2.48,10.59c-0.27,1.34-0.54,2.67-0.8,3.96
		c-0.26,1.3-0.61,2.62-1.04,3.98c-0.13,0.32-0.26,0.64-0.39,0.97c-0.13,0.32-0.31,0.6-0.55,0.85c-0.24,0.24-0.56,0.42-0.97,0.52
		c-0.41,0.1-0.95,0.08-1.62-0.08c-0.8-0.29-1.22-0.73-1.26-1.34c-0.04-0.61,0.06-1.44,0.29-2.49c0.66-3.62,1.4-7.23,2.21-10.84
		c0.81-3.61,1.65-7.2,2.5-10.77c1.23-5.18,2.79-10.29,4.74-15.27c0.53-1.04,0.93-1.91,1.22-2.62c0.28-0.72,0.68-1.42,1.19-2.1
		c0.4-0.46,0.84-0.83,1.33-1.12c0.48-0.29,0.99-0.42,1.52-0.39c0.35,0.03,0.73,0.1,1.15,0.2c0.42,0.1,0.8,0.31,1.14,0.62
		c0.34,0.31,0.64,0.78,0.9,1.4c0.26,0.62,0.44,1.42,0.54,2.41c0.47,4.87,0.68,9.71,0.67,14.49c-0.01,4.79-0.07,9.59-0.17,14.39
		c-0.03,0.86-0.02,1.73,0,2.6C368.69,97.12,368.77,98.06,368.91,99.07z M386.99,78.65c0.76-1.61,1.57-3.18,2.44-4.73
		c0.87-1.54,2.13-3,3.8-4.35c1.19-1,2.43-1.58,3.72-1.76c1.29-0.17,2.52-0.09,3.67,0.24c1.15,0.33,2.18,0.89,3.07,1.67
		c0.89,0.77,1.57,1.62,2.04,2.53c1.57,3.06,2.2,6.18,1.93,9.33c-0.12,2.01-0.51,3.87-1.14,5.6c-0.63,1.73-1.19,3.73-1.79,5.81
		c-0.57,1.98-1.29,3.82-1.96,5.43c-0.67,1.6-1.41,3.25-2.2,4.93c-0.81,1.73-1.71,3.42-2.7,5.05c-0.99,1.64-2.06,3.22-3.22,4.77
		c-0.9,1.17-1.92,2.06-3.04,2.67c-1.13,0.61-2.46,0.89-3.98,0.84c-0.9-0.02-1.77-0.21-2.62-0.57c-0.85-0.36-1.61-0.84-2.27-1.44
		c-0.66-0.6-1.23-1.28-1.71-2.04c-0.48-0.76-0.8-1.61-0.97-2.54c-0.43-2.21-0.53-4.38-0.29-6.49c0.24-2.11,0.58-4.26,1.08-6.41
		c0.7-3.05,1.58-6.1,2.59-9.12C384.45,85.06,385.63,81.91,386.99,78.65z M388.56,90.57c-0.96,2.78-1.77,5.26-2.44,7.44
		c-0.67,2.18-1.16,4.51-1.47,6.99c-0.13,0.99-0.21,1.96-0.24,2.91c-0.04,0.95,0.07,1.9,0.32,2.88c0.21,0.91,0.63,1.5,1.26,1.78
		c0.62,0.28,1.36,0.21,2.22-0.21c0.47-0.24,0.96-0.62,1.48-1.13c0.52-0.51,0.91-0.98,1.18-1.4c1.34-1.95,2.52-3.83,3.55-5.65
		c1.03-1.81,2.02-3.81,2.88-5.97c0.79-1.98,1.44-4.02,2.01-6.04c0.56-2.01,1.19-4.03,1.81-6.03c0.48-1.53,0.91-3.29,1.31-5.24
		c0.4-1.94,0.57-4.01,0.14-5.6c-0.42-1.54-1.34-2.66-2.14-3.06c-0.81-0.4-1.95,0.01-3.14,1.22c-1.19,1.2-2.27,2.79-3.24,4.47
		c-0.97,1.68-1.82,3.35-2.53,4.99c-0.72,1.65-1.32,3.15-1.83,4.53C389.17,88.83,388.8,89.87,388.56,90.57z M416.75,91.83
		c0.3-0.67,0.69-1.51,1.19-2.49c0.49-0.98,0.98-1.95,1.46-2.89c0.48-0.94,0.91-1.78,1.3-2.52c0.39-0.74,0.61-1.18,0.67-1.31
		c0.28-0.78-0.1-1.36-1.14-1.71c-0.45-0.14-0.94-0.28-1.47-0.43c-0.53-0.15-1.04-0.34-1.5-0.56c-0.46-0.22-0.84-0.5-1.11-0.82
		c-0.27-0.33-0.38-0.72-0.31-1.17c0.07-0.49,0.45-0.93,1.1-1.29c0.66-0.36,1.68-0.38,3.06-0.05c0.9,0.28,1.9,0.62,3,1.02
		c1.1,0.4,2.18,0.83,3.23,1.28c1.05,0.45,2.06,0.88,3.03,1.3c0.97,0.42,1.82,0.81,2.56,1.16c0.58,0.28,1.16,0.64,1.71,1.1
		c0.56,0.46,0.89,0.99,0.99,1.58c0.1,0.59-0.15,1.08-0.76,1.47c-0.61,0.39-1.7,0.28-3.28-0.32c-0.75-0.3-1.36-0.49-1.8-0.56
		c-0.44-0.07-0.82-0.06-1.12,0.05c-0.3,0.1-0.53,0.28-0.68,0.53c-0.15,0.26-0.32,0.53-0.52,0.81c-0.98,1.71-1.92,3.55-2.84,5.52
		c-0.91,1.98-1.84,3.86-2.79,5.63c-0.64,1.38-1.31,2.85-2.03,4.4c-0.72,1.56-1.4,3.07-2.04,4.52c-0.64,1.45-1.24,2.78-1.8,3.99
		c-0.55,1.2-0.96,2.09-1.23,2.67c-0.8,1.73-1.54,3.48-2.21,5.25c-0.68,1.77-1.41,3.51-2.12,5.21c-0.37,0.9-1.02,1.4-1.94,1.49
		c-0.92,0.09-1.74-0.3-2.45-1.15c-0.29-0.34-0.44-0.68-0.46-1.01c-0.02-0.33,0-0.7,0.07-1.09c0.08-0.44,0.24-1.01,0.46-1.69
		c0.22-0.68,0.44-1.38,0.68-2.11c0.24-0.72,0.48-1.41,0.73-2.04c0.25-0.64,0.47-1.16,0.65-1.56c0.43-0.99,1.08-2.49,1.95-4.52
		c0.86-2.03,1.79-4.17,2.79-6.44c1-2.26,1.95-4.44,2.87-6.52C415.58,94.48,416.27,92.91,416.75,91.83z M488.61,137.68
		c-3.36,0.53-6.8-0.2-10.07-1.13c-11.91-3.36-23.06-9.38-32.41-17.48c11.93-4.87,25.49-5.65,37.9-2.18
		c3.54,0.99,7.11,2.39,9.72,4.99c2.61,2.6,4.06,6.63,2.76,10.07C495.28,135.12,491.97,137.15,488.61,137.68z M477.48,97.27
		c-1.7,2.12-4.12,3.53-6.55,4.74c-8.84,4.41-18.65,6.85-28.53,7.09c4.43-9.29,12.01-17.03,21.21-21.65
		c2.63-1.32,5.48-2.41,8.42-2.28c2.94,0.13,5.96,1.73,7.04,4.47C480.05,92.18,479.18,95.15,477.48,97.27z M107.15,110.49
		l-13.68,4.38l-2.82-8.79l-23.84,7.64l2.82,8.79l-15.14,4.85l27.49,85.85l52.66-16.86L107.15,110.49z M64.44,131.6l37.08-11.87
		l23.17,72.35l-37.08,11.87L64.44,131.6z"/>
</g>
</svg>
